<?xml version="1.0" encoding="utf-8" standalone="no"?>
<!DOCTYPE svg PUBLIC "-//W3C//DTD SVG 1.1//EN"
  "http://www.w3.org/Graphics/SVG/1.1/DTD/svg11.dtd">
<svg xmlns:xlink="http://www.w3.org/1999/xlink" width="648pt" height="504pt" viewBox="0 0 648 504" xmlns="http://www.w3.org/2000/svg" version="1.1">
 <metadata>
  <rdf:RDF xmlns:dc="http://purl.org/dc/elements/1.1/" xmlns:cc="http://creativecommons.org/ns#" xmlns:rdf="http://www.w3.org/1999/02/22-rdf-syntax-ns#">
   <cc:Work>
    <dc:type rdf:resource="http://purl.org/dc/dcmitype/StillImage"/>
    <dc:date>2024-07-23T10:04:22.830198</dc:date>
    <dc:format>image/svg+xml</dc:format>
    <dc:creator>
     <cc:Agent>
      <dc:title>Matplotlib v3.8.2, https://matplotlib.org/</dc:title>
     </cc:Agent>
    </dc:creator>
   </cc:Work>
  </rdf:RDF>
 </metadata>
 <defs>
  <style type="text/css">*{stroke-linejoin: round; stroke-linecap: butt}</style>
 </defs>
 <g id="figure_1">
  <g id="patch_1">
   <path d="M 0 504 
L 648 504 
L 648 0 
L 0 0 
z
" style="fill: #ffffff"/>
  </g>
  <g id="axes_1">
   <g id="patch_2">
    <path d="M 74.829989 442.346597 
L 573.170011 442.346597 
L 573.170011 10.8 
L 74.829989 10.8 
z
" style="fill: #ffffff"/>
   </g>
   <g id="PolyCollection_1">
    <defs>
     <path id="mcaf901286f" d="M 80.982335 -261.28558 
L 80.982335 -253.959668 
L 85.083899 -249.066341 
L 89.185463 -244.117299 
L 93.287027 -248.501612 
L 97.388591 -249.167147 
L 101.490155 -247.196181 
L 105.591719 -245.11686 
L 109.693283 -248.20526 
L 113.794847 -247.353843 
L 117.896411 -247.512457 
L 121.997975 -246.4915 
L 126.099538 -249.876363 
L 130.201102 -247.522987 
L 134.302666 -239.188469 
L 138.40423 -249.152992 
L 142.505794 -246.008976 
L 146.607358 -244.588069 
L 150.708922 -245.935902 
L 154.810486 -245.567109 
L 158.91205 -243.616089 
L 163.013614 -245.868921 
L 167.115178 -249.738845 
L 171.216742 -251.348625 
L 175.318306 -244.401241 
L 179.41987 -240.112191 
L 183.521434 -248.440549 
L 187.622998 -245.664182 
L 191.724562 -245.825566 
L 195.826126 -244.611547 
L 199.92769 -242.954891 
L 204.029254 -248.077424 
L 208.130818 -249.757709 
L 212.232382 -250.036721 
L 216.333946 -250.661408 
L 220.43551 -249.951825 
L 224.537074 -255.003411 
L 228.638638 -249.26081 
L 232.740202 -246.580668 
L 236.841766 -247.359273 
L 240.94333 -242.817 
L 245.044894 -248.088226 
L 249.146458 -250.426686 
L 253.248022 -249.135479 
L 257.349585 -246.887816 
L 261.451149 -246.882763 
L 265.552713 -251.268696 
L 269.654277 -251.959925 
L 273.755841 -245.759585 
L 277.857405 -248.094017 
L 281.958969 -250.543823 
L 286.060533 -245.00196 
L 290.162097 -243.783992 
L 294.263661 -247.570702 
L 298.365225 -245.014432 
L 302.466789 -250.673196 
L 306.568353 -247.490461 
L 310.669917 -246.801702 
L 314.771481 -249.259857 
L 318.873045 -248.007518 
L 322.974609 -249.057271 
L 327.076173 -248.270033 
L 331.177737 -248.764584 
L 335.279301 -246.76037 
L 339.380865 -246.552276 
L 343.482429 -252.641409 
L 347.583993 -247.20238 
L 351.685557 -247.580936 
L 355.787121 -247.595547 
L 359.888685 -248.196068 
L 363.990249 -248.915799 
L 368.091813 -252.6869 
L 372.193377 -247.352308 
L 376.294941 -249.240069 
L 380.396505 -244.985128 
L 384.498069 -246.507225 
L 388.599633 -244.174525 
L 392.701196 -249.323311 
L 396.80276 -249.358315 
L 400.904324 -245.932391 
L 405.005888 -246.313228 
L 409.107452 -251.168913 
L 413.209016 -246.070993 
L 417.31058 -250.874983 
L 421.412144 -248.058665 
L 425.513708 -249.097833 
L 429.615272 -246.262596 
L 433.716836 -253.288894 
L 437.8184 -250.963945 
L 441.919964 -251.138022 
L 446.021528 -245.090972 
L 450.123092 -251.299248 
L 454.224656 -251.315858 
L 458.32622 -250.146131 
L 462.427784 -249.275228 
L 466.529348 -248.481915 
L 470.630912 -257.409167 
L 474.732476 -253.905279 
L 478.83404 -246.298781 
L 482.935604 -248.820902 
L 487.037168 -254.937287 
L 487.037168 -263.622451 
L 487.037168 -263.622451 
L 482.935604 -256.480875 
L 478.83404 -253.20264 
L 474.732476 -262.997213 
L 470.630912 -266.122306 
L 466.529348 -256.405551 
L 462.427784 -257.683795 
L 458.32622 -257.641514 
L 454.224656 -258.957655 
L 450.123092 -259.802887 
L 446.021528 -253.581826 
L 441.919964 -259.135491 
L 437.8184 -258.895256 
L 433.716836 -262.370665 
L 429.615272 -254.896069 
L 425.513708 -257.032567 
L 421.412144 -255.585868 
L 417.31058 -259.39853 
L 413.209016 -253.016116 
L 409.107452 -257.861666 
L 405.005888 -254.845437 
L 400.904324 -253.98334 
L 396.80276 -256.772085 
L 392.701196 -256.80709 
L 388.599633 -253.255339 
L 384.498069 -255.065751 
L 380.396505 -252.030424 
L 376.294941 -258.133265 
L 372.193377 -254.220669 
L 368.091813 -260.07248 
L 363.990249 -257.214601 
L 359.888685 -256.691399 
L 355.787121 -256.463297 
L 351.685557 -256.063597 
L 347.583993 -255.61353 
L 343.482429 -261.360905 
L 339.380865 -253.363455 
L 335.279301 -253.983984 
L 331.177737 -256.537193 
L 327.076173 -254.960189 
L 322.974609 -259.144686 
L 318.873045 -255.222704 
L 314.771481 -257.284855 
L 310.669917 -254.771274 
L 306.568353 -255.739761 
L 302.466789 -258.357383 
L 298.365225 -254.486988 
L 294.263661 -256.073831 
L 290.162097 -251.160005 
L 286.060533 -253.256527 
L 281.958969 -258.901068 
L 277.857405 -255.964827 
L 273.755841 -253.327524 
L 269.654277 -259.556521 
L 265.552713 -259.83344 
L 261.451149 -253.861591 
L 257.349585 -253.027916 
L 253.248022 -254.094743 
L 249.146458 -255.703714 
L 245.044894 -253.070439 
L 240.94333 -248.398195 
L 236.841766 -254.628015 
L 232.740202 -252.09213 
L 228.638638 -254.798034 
L 224.537074 -261.899082 
L 220.43551 -257.421509 
L 216.333946 -256.297614 
L 212.232382 -256.922302 
L 208.130818 -257.201313 
L 204.029254 -254.324175 
L 199.92769 -249.503238 
L 195.826126 -249.918139 
L 191.724562 -251.189986 
L 187.622998 -250.522748 
L 183.521434 -255.618295 
L 179.41987 -247.374203 
L 175.318306 -250.542756 
L 171.216742 -257.267642 
L 167.115178 -255.977244 
L 163.013614 -251.560943 
L 158.91205 -249.670663 
L 154.810486 -252.691378 
L 150.708922 -251.908274 
L 146.607358 -252.427483 
L 142.505794 -253.078133 
L 138.40423 -256.563097 
L 134.302666 -246.64068 
L 130.201102 -251.978433 
L 126.099538 -257.08266 
L 121.997975 -250.524053 
L 117.896411 -253.231897 
L 113.794847 -252.147577 
L 109.693283 -254.196339 
L 105.591719 -252.727316 
L 101.490155 -251.062306 
L 97.388591 -255.306008 
L 93.287027 -255.557232 
L 89.185463 -251.65532 
L 85.083899 -254.163881 
L 80.982335 -261.28558 
z
" style="stroke: #808080; stroke-opacity: 0.2"/>
    </defs>
    <g clip-path="url(#p6157178475)">
     <use xlink:href="#mcaf901286f" x="0" y="504" style="fill: #808080; fill-opacity: 0.2; stroke: #808080; stroke-opacity: 0.2"/>
    </g>
   </g>
   <g id="PolyCollection_2">
    <defs>
     <path id="m73c6994be3" d="M 80.982335 -248.659979 
L 80.982335 -244.705156 
L 85.083899 -250.770309 
L 89.185463 -244.938783 
L 93.287027 -245.101516 
L 97.388591 -246.761974 
L 101.490155 -243.255817 
L 105.591719 -250.060226 
L 109.693283 -253.349933 
L 113.794847 -242.812094 
L 117.896411 -247.315716 
L 121.997975 -246.039677 
L 126.099538 -241.92259 
L 130.201102 -246.880866 
L 134.302666 -247.15737 
L 138.40423 -247.163151 
L 142.505794 -244.266209 
L 146.607358 -248.276872 
L 150.708922 -249.847395 
L 154.810486 -245.361919 
L 158.91205 -241.093307 
L 163.013614 -238.160165 
L 167.115178 -247.913074 
L 171.216742 -244.868352 
L 175.318306 -239.278062 
L 179.41987 -251.343943 
L 183.521434 -243.750939 
L 187.622998 -246.497616 
L 191.724562 -236.033189 
L 195.826126 -246.279329 
L 199.92769 -243.364334 
L 204.029254 -235.003199 
L 208.130818 -242.562486 
L 212.232382 -243.624766 
L 216.333946 -251.877052 
L 220.43551 -237.132575 
L 224.537074 -240.996174 
L 228.638638 -251.912523 
L 232.740202 -245.873662 
L 236.841766 -247.079712 
L 240.94333 -246.643934 
L 245.044894 -241.846271 
L 249.146458 -242.617368 
L 253.248022 -249.941895 
L 257.349585 -248.600431 
L 261.451149 -243.385398 
L 265.552713 -250.209076 
L 269.654277 -249.060966 
L 273.755841 -243.508236 
L 277.857405 -243.675332 
L 281.958969 -243.12589 
L 286.060533 -246.283486 
L 290.162097 -244.687063 
L 294.263661 -241.924003 
L 298.365225 -250.172519 
L 302.466789 -243.037058 
L 306.568353 -247.107831 
L 310.669917 -238.986772 
L 314.771481 -246.662837 
L 318.873045 -244.804743 
L 322.974609 -244.421877 
L 327.076173 -242.517673 
L 331.177737 -248.027759 
L 335.279301 -241.650329 
L 339.380865 -247.990157 
L 343.482429 -244.936177 
L 347.583993 -248.031739 
L 351.685557 -242.350352 
L 355.787121 -249.772448 
L 359.888685 -247.4812 
L 363.990249 -246.545696 
L 368.091813 -250.362657 
L 372.193377 -245.879451 
L 376.294941 -251.527137 
L 380.396505 -244.828818 
L 384.498069 -247.2374 
L 388.599633 -242.811788 
L 392.701196 -250.274473 
L 396.80276 -244.852147 
L 400.904324 -251.166066 
L 405.005888 -245.570312 
L 409.107452 -240.693454 
L 413.209016 -248.943506 
L 417.31058 -244.973262 
L 421.412144 -239.998324 
L 425.513708 -243.447171 
L 429.615272 -242.292491 
L 433.716836 -245.828558 
L 437.8184 -245.113532 
L 441.919964 -242.729721 
L 446.021528 -245.314879 
L 450.123092 -243.900109 
L 454.224656 -245.200523 
L 458.32622 -248.498974 
L 462.427784 -245.190369 
L 466.529348 -249.984764 
L 470.630912 -248.377098 
L 474.732476 -241.211786 
L 478.83404 -250.564398 
L 482.935604 -246.973795 
L 487.037168 -239.963406 
L 487.037168 -246.593588 
L 487.037168 -246.593588 
L 482.935604 -254.364032 
L 478.83404 -258.477378 
L 474.732476 -249.555505 
L 470.630912 -255.916896 
L 466.529348 -256.907073 
L 462.427784 -253.10171 
L 458.32622 -256.153343 
L 454.224656 -253.808203 
L 450.123092 -251.883707 
L 446.021528 -252.350135 
L 441.919964 -250.814576 
L 437.8184 -252.730643 
L 433.716836 -254.613461 
L 429.615272 -250.535159 
L 425.513708 -251.79916 
L 421.412144 -247.902381 
L 417.31058 -252.960494 
L 413.209016 -258.844139 
L 409.107452 -248.19264 
L 405.005888 -253.707156 
L 400.904324 -258.502776 
L 396.80276 -253.439932 
L 392.701196 -258.050657 
L 388.599633 -248.940892 
L 384.498069 -255.712882 
L 380.396505 -253.821584 
L 376.294941 -259.037514 
L 372.193377 -253.039694 
L 368.091813 -257.693731 
L 363.990249 -253.62758 
L 359.888685 -254.483692 
L 355.787121 -258.463102 
L 351.685557 -251.014783 
L 347.583993 -255.008123 
L 343.482429 -252.012191 
L 339.380865 -255.945513 
L 335.279301 -249.027382 
L 331.177737 -255.997493 
L 327.076173 -250.937042 
L 322.974609 -252.705652 
L 318.873045 -252.681109 
L 314.771481 -254.406247 
L 310.669917 -246.584832 
L 306.568353 -255.036223 
L 302.466789 -251.044723 
L 298.365225 -256.98806 
L 294.263661 -250.455743 
L 290.162097 -251.723819 
L 286.060533 -253.531467 
L 281.958969 -251.493376 
L 277.857405 -251.123096 
L 273.755841 -251.917258 
L 269.654277 -256.397578 
L 265.552713 -257.488989 
L 261.451149 -252.308838 
L 257.349585 -254.887335 
L 253.248022 -258.293654 
L 249.146458 -250.568605 
L 245.044894 -251.966768 
L 240.94333 -253.618923 
L 236.841766 -253.899792 
L 232.740202 -252.597579 
L 228.638638 -260.354163 
L 224.537074 -247.352435 
L 220.43551 -245.572444 
L 216.333946 -259.762568 
L 212.232382 -250.009111 
L 208.130818 -251.250553 
L 204.029254 -242.416552 
L 199.92769 -250.717447 
L 195.826126 -253.356462 
L 191.724562 -244.880213 
L 187.622998 -253.048595 
L 183.521434 -250.599585 
L 179.41987 -259.48945 
L 175.318306 -247.905997 
L 171.216742 -251.721691 
L 167.115178 -255.126789 
L 163.013614 -246.873955 
L 158.91205 -247.882369 
L 154.810486 -252.482256 
L 150.708922 -258.208993 
L 146.607358 -255.479637 
L 142.505794 -252.861319 
L 138.40423 -254.264257 
L 134.302666 -254.001295 
L 130.201102 -255.44235 
L 126.099538 -249.919671 
L 121.997975 -254.22318 
L 117.896411 -254.380434 
L 113.794847 -250.821783 
L 109.693283 -261.783339 
L 105.591719 -257.458677 
L 101.490155 -250.198898 
L 97.388591 -253.500883 
L 93.287027 -253.638467 
L 89.185463 -252.994973 
L 85.083899 -258.629791 
L 80.982335 -248.659979 
z
" style="stroke: #808080; stroke-opacity: 0.2"/>
    </defs>
    <g clip-path="url(#p6157178475)">
     <use xlink:href="#m73c6994be3" x="0" y="504" style="fill: #808080; fill-opacity: 0.2; stroke: #808080; stroke-opacity: 0.2"/>
    </g>
   </g>
   <g id="PolyCollection_3">
    <defs>
     <path id="mab4dd33a6f" d="M 80.982335 -282.806354 
L 80.982335 -269.726907 
L 85.083899 -304.124175 
L 89.185463 -312.794724 
L 93.287027 -319.691395 
L 97.388591 -313.013156 
L 101.490155 -309.048261 
L 105.591719 -315.743964 
L 109.693283 -327.800954 
L 113.794847 -333.593568 
L 117.896411 -332.989159 
L 121.997975 -340.014501 
L 126.099538 -352.12842 
L 130.201102 -353.639887 
L 134.302666 -359.349026 
L 138.40423 -355.168707 
L 142.505794 -348.681258 
L 146.607358 -369.624317 
L 150.708922 -367.499494 
L 154.810486 -371.462945 
L 158.91205 -358.80063 
L 163.013614 -371.175398 
L 167.115178 -379.451177 
L 171.216742 -370.618111 
L 175.318306 -387.224578 
L 179.41987 -378.590625 
L 183.521434 -376.452643 
L 187.622998 -382.890383 
L 191.724562 -378.315559 
L 195.826126 -378.315559 
L 199.92769 -382.606517 
L 204.029254 -384.764198 
L 208.130818 -384.764198 
L 212.232382 -388.526784 
L 216.333946 -388.526784 
L 220.43551 -392.593558 
L 224.537074 -392.593558 
L 228.638638 -390.415439 
L 232.740202 -392.593558 
L 236.841766 -390.415439 
L 240.94333 -386.08573 
L 245.044894 -386.08573 
L 249.146458 -392.593558 
L 253.248022 -389.861909 
L 257.349585 -392.308937 
L 261.451149 -392.308937 
L 265.552713 -387.701944 
L 269.654277 -392.308937 
L 273.755841 -390.135886 
L 277.857405 -389.861909 
L 281.958969 -387.701944 
L 286.060533 -396.682894 
L 290.162097 -394.491098 
L 294.263661 -394.491098 
L 298.365225 -392.308937 
L 302.466789 -390.135886 
L 306.568353 -392.308937 
L 310.669917 -392.308937 
L 314.771481 -387.437418 
L 318.873045 -392.308937 
L 322.974609 -387.701944 
L 327.076173 -392.308937 
L 331.177737 -394.491098 
L 335.279301 -390.135886 
L 339.380865 -392.308937 
L 343.482429 -387.701944 
L 347.583993 -389.593187 
L 351.685557 -396.393505 
L 355.787121 -389.593187 
L 359.888685 -400.501122 
L 363.990249 -395.832867 
L 368.091813 -391.488978 
L 372.193377 -396.110289 
L 376.294941 -400.501122 
L 380.396505 -402.41758 
L 384.498069 -399.930564 
L 388.599633 -398.018076 
L 392.701196 -398.018076 
L 396.80276 -402.41758 
L 400.904324 -400.21279 
L 405.005888 -400.21279 
L 409.107452 -397.741166 
L 413.209016 -398.018076 
L 417.31058 -404.633088 
L 421.412144 -404.633088 
L 425.513708 -400.21279 
L 429.615272 -397.741166 
L 433.716836 -398.018076 
L 437.8184 -402.41758 
L 441.919964 -402.41758 
L 446.021528 -400.21279 
L 450.123092 -402.41758 
L 454.224656 -400.21279 
L 458.32622 -399.930564 
L 462.427784 -402.41758 
L 466.529348 -397.741166 
L 470.630912 -402.41758 
L 474.732476 -402.129615 
L 478.83404 -400.21279 
L 482.935604 -400.21279 
L 487.037168 -400.21279 
L 487.037168 -426.870725 
L 487.037168 -426.870725 
L 482.935604 -426.870725 
L 478.83404 -426.870725 
L 474.732476 -428.820804 
L 470.630912 -428.532839 
L 466.529348 -425.475443 
L 462.427784 -428.532839 
L 458.32622 -427.15295 
L 454.224656 -426.870725 
L 450.123092 -428.532839 
L 446.021528 -426.870725 
L 441.919964 -428.532839 
L 437.8184 -428.532839 
L 433.716836 -425.198534 
L 429.615272 -425.475443 
L 425.513708 -426.870725 
L 421.412144 -430.184236 
L 417.31058 -430.184236 
L 413.209016 -425.198534 
L 409.107452 -425.475443 
L 405.005888 -426.870725 
L 400.904324 -426.870725 
L 396.80276 -428.532839 
L 392.701196 -425.198534 
L 388.599633 -425.198534 
L 384.498069 -427.15295 
L 380.396505 -428.532839 
L 376.294941 -426.582393 
L 372.193377 -423.239415 
L 368.091813 -420.126916 
L 363.990249 -423.516838 
L 359.888685 -426.582393 
L 355.787121 -418.155803 
L 351.685557 -422.956199 
L 347.583993 -418.155803 
L 343.482429 -416.180141 
L 339.380865 -419.306958 
L 335.279301 -417.613103 
L 331.177737 -420.991701 
L 327.076173 -419.306958 
L 322.974609 -416.180141 
L 318.873045 -419.306958 
L 314.771481 -416.444667 
L 310.669917 -419.306958 
L 306.568353 -419.306958 
L 302.466789 -417.613103 
L 298.365225 -419.306958 
L 294.263661 -420.991701 
L 290.162097 -420.991701 
L 286.060533 -422.66681 
L 281.958969 -416.180141 
L 277.857405 -417.887081 
L 273.755841 -417.613103 
L 269.654277 -419.306958 
L 265.552713 -416.180141 
L 261.451149 -419.306958 
L 257.349585 -419.306958 
L 253.248022 -417.887081 
L 249.146458 -419.022337 
L 245.044894 -413.929449 
L 240.94333 -413.929449 
L 236.841766 -417.33355 
L 232.740202 -419.022337 
L 228.638638 -417.33355 
L 224.537074 -419.022337 
L 220.43551 -419.022337 
L 216.333946 -415.355301 
L 212.232382 -415.355301 
L 208.130818 -411.384077 
L 204.029254 -411.384077 
L 199.92769 -409.674852 
L 195.826126 -406.232 
L 191.724562 -406.232 
L 187.622998 -409.390986 
L 183.521434 -404.228011 
L 179.41987 -405.956935 
L 175.318306 -412.790601 
L 171.216742 -398.461829 
L 167.115178 -405.096382 
L 163.013614 -397.904541 
L 158.91205 -387.07788 
L 154.810486 -397.616994 
L 150.708922 -393.846636 
L 146.607358 -395.588718 
L 142.505794 -377.862726 
L 138.40423 -382.975993 
L 134.302666 -386.529484 
L 130.201102 -380.637908 
L 126.099538 -378.282469 
L 121.997975 -367.194959 
L 117.896411 -358.752681 
L 113.794847 -358.148272 
L 109.693283 -352.340171 
L 105.591719 -341.19573 
L 101.490155 -332.423813 
L 97.388591 -336.192729 
L 93.287027 -341.115205 
L 89.185463 -332.544256 
L 85.083899 -321.88028 
L 80.982335 -282.806354 
z
" style="stroke: #808080; stroke-opacity: 0.2"/>
    </defs>
    <g clip-path="url(#p6157178475)">
     <use xlink:href="#mab4dd33a6f" x="0" y="504" style="fill: #808080; fill-opacity: 0.2; stroke: #808080; stroke-opacity: 0.2"/>
    </g>
   </g>
   <g id="matplotlib.axis_1">
    <g id="xtick_1">
     <g id="line2d_1">
      <path d="M 80.982335 442.346597 
L 80.982335 10.8 
" clip-path="url(#p6157178475)" style="fill: none; stroke: #b0b0b0; stroke-width: 0.8; stroke-linecap: square"/>
     </g>
     <g id="line2d_2">
      <defs>
       <path id="m70133a2021" d="M 0 0 
L 0 3.5 
" style="stroke: #000000; stroke-width: 0.8"/>
      </defs>
      <g>
       <use xlink:href="#m70133a2021" x="80.982335" y="442.346597" style="stroke: #000000; stroke-width: 0.8"/>
      </g>
     </g>
     <g id="text_1">
      <!-- 0 -->
      <g transform="translate(75.956382 464.56729) scale(0.22 -0.22)">
       <defs>
        <path id="CMR17-30" d="M 2688 2025 
C 2688 2416 2682 3080 2413 3591 
C 2176 4039 1798 4198 1466 4198 
C 1158 4198 768 4058 525 3597 
C 269 3118 243 2524 243 2025 
C 243 1661 250 1106 448 619 
C 723 -39 1216 -128 1466 -128 
C 1760 -128 2208 -7 2470 600 
C 2662 1042 2688 1559 2688 2025 
z
M 1466 -26 
C 1056 -26 813 325 723 812 
C 653 1188 653 1738 653 2096 
C 653 2588 653 2997 736 3387 
C 858 3929 1216 4096 1466 4096 
C 1728 4096 2067 3923 2189 3400 
C 2272 3036 2278 2607 2278 2096 
C 2278 1680 2278 1169 2202 792 
C 2067 95 1690 -26 1466 -26 
z
" transform="scale(0.015625)"/>
       </defs>
       <use xlink:href="#CMR17-30" transform="scale(0.996264)"/>
      </g>
     </g>
    </g>
    <g id="xtick_2">
     <g id="line2d_3">
      <path d="M 121.587818 442.346597 
L 121.587818 10.8 
" clip-path="url(#p6157178475)" style="fill: none; stroke: #b0b0b0; stroke-width: 0.8; stroke-linecap: square"/>
     </g>
     <g id="line2d_4">
      <g>
       <use xlink:href="#m70133a2021" x="121.587818" y="442.346597" style="stroke: #000000; stroke-width: 0.8"/>
      </g>
     </g>
     <g id="text_2">
      <!-- 10 -->
      <g transform="translate(111.535913 464.56729) scale(0.22 -0.22)">
       <defs>
        <path id="CMR17-31" d="M 1702 4058 
C 1702 4192 1696 4192 1606 4192 
C 1357 3916 979 3827 621 3827 
C 602 3827 570 3827 563 3808 
C 557 3795 557 3782 557 3648 
C 755 3648 1088 3686 1344 3839 
L 1344 461 
C 1344 236 1331 160 781 160 
L 589 160 
L 589 0 
C 896 0 1216 0 1523 0 
C 1830 0 2150 0 2458 0 
L 2458 160 
L 2266 160 
C 1715 160 1702 230 1702 458 
L 1702 4058 
z
" transform="scale(0.015625)"/>
       </defs>
       <use xlink:href="#CMR17-31" transform="scale(0.996264)"/>
       <use xlink:href="#CMR17-30" transform="translate(45.690477 0) scale(0.996264)"/>
      </g>
     </g>
    </g>
    <g id="xtick_3">
     <g id="line2d_5">
      <path d="M 162.193301 442.346597 
L 162.193301 10.8 
" clip-path="url(#p6157178475)" style="fill: none; stroke: #b0b0b0; stroke-width: 0.8; stroke-linecap: square"/>
     </g>
     <g id="line2d_6">
      <g>
       <use xlink:href="#m70133a2021" x="162.193301" y="442.346597" style="stroke: #000000; stroke-width: 0.8"/>
      </g>
     </g>
     <g id="text_3">
      <!-- 20 -->
      <g transform="translate(152.141396 464.56729) scale(0.22 -0.22)">
       <defs>
        <path id="CMR17-32" d="M 2669 989 
L 2554 989 
C 2490 536 2438 459 2413 420 
C 2381 369 1920 369 1830 369 
L 602 369 
C 832 619 1280 1072 1824 1597 
C 2214 1967 2669 2402 2669 3035 
C 2669 3790 2067 4224 1395 4224 
C 691 4224 262 3604 262 3030 
C 262 2780 448 2748 525 2748 
C 589 2748 781 2787 781 3010 
C 781 3207 614 3264 525 3264 
C 486 3264 448 3258 422 3245 
C 544 3790 915 4058 1306 4058 
C 1862 4058 2227 3617 2227 3035 
C 2227 2479 1901 2000 1536 1584 
L 262 146 
L 262 0 
L 2515 0 
L 2669 989 
z
" transform="scale(0.015625)"/>
       </defs>
       <use xlink:href="#CMR17-32" transform="scale(0.996264)"/>
       <use xlink:href="#CMR17-30" transform="translate(45.690477 0) scale(0.996264)"/>
      </g>
     </g>
    </g>
    <g id="xtick_4">
     <g id="line2d_7">
      <path d="M 202.798785 442.346597 
L 202.798785 10.8 
" clip-path="url(#p6157178475)" style="fill: none; stroke: #b0b0b0; stroke-width: 0.8; stroke-linecap: square"/>
     </g>
     <g id="line2d_8">
      <g>
       <use xlink:href="#m70133a2021" x="202.798785" y="442.346597" style="stroke: #000000; stroke-width: 0.8"/>
      </g>
     </g>
     <g id="text_4">
      <!-- 30 -->
      <g transform="translate(192.74688 464.56729) scale(0.22 -0.22)">
       <defs>
        <path id="CMR17-33" d="M 1414 2157 
C 1984 2157 2234 1662 2234 1090 
C 2234 320 1824 25 1453 25 
C 1114 25 563 194 390 693 
C 422 680 454 680 486 680 
C 640 680 755 782 755 948 
C 755 1133 614 1216 486 1216 
C 378 1216 211 1165 211 926 
C 211 335 787 -128 1466 -128 
C 2176 -128 2720 430 2720 1085 
C 2720 1707 2208 2157 1600 2227 
C 2086 2328 2554 2756 2554 3329 
C 2554 3820 2048 4179 1472 4179 
C 890 4179 378 3829 378 3329 
C 378 3110 544 3072 627 3072 
C 762 3072 877 3155 877 3321 
C 877 3486 762 3569 627 3569 
C 602 3569 570 3569 544 3557 
C 730 3959 1235 4032 1459 4032 
C 1683 4032 2106 3925 2106 3320 
C 2106 3143 2080 2828 1862 2550 
C 1670 2304 1453 2304 1242 2284 
C 1210 2284 1062 2269 1037 2269 
C 992 2263 966 2257 966 2208 
C 966 2163 973 2157 1101 2157 
L 1414 2157 
z
" transform="scale(0.015625)"/>
       </defs>
       <use xlink:href="#CMR17-33" transform="scale(0.996264)"/>
       <use xlink:href="#CMR17-30" transform="translate(45.690477 0) scale(0.996264)"/>
      </g>
     </g>
    </g>
    <g id="xtick_5">
     <g id="line2d_9">
      <path d="M 243.404268 442.346597 
L 243.404268 10.8 
" clip-path="url(#p6157178475)" style="fill: none; stroke: #b0b0b0; stroke-width: 0.8; stroke-linecap: square"/>
     </g>
     <g id="line2d_10">
      <g>
       <use xlink:href="#m70133a2021" x="243.404268" y="442.346597" style="stroke: #000000; stroke-width: 0.8"/>
      </g>
     </g>
     <g id="text_5">
      <!-- 40 -->
      <g transform="translate(233.352363 464.56729) scale(0.22 -0.22)">
       <defs>
        <path id="CMR17-34" d="M 2150 4122 
C 2150 4256 2144 4256 2029 4256 
L 128 1254 
L 128 1088 
L 1779 1088 
L 1779 457 
C 1779 224 1766 160 1318 160 
L 1197 160 
L 1197 0 
C 1402 0 1747 0 1965 0 
C 2182 0 2528 0 2733 0 
L 2733 160 
L 2611 160 
C 2163 160 2150 224 2150 457 
L 2150 1088 
L 2803 1088 
L 2803 1254 
L 2150 1254 
L 2150 4122 
z
M 1798 3703 
L 1798 1254 
L 256 1254 
L 1798 3703 
z
" transform="scale(0.015625)"/>
       </defs>
       <use xlink:href="#CMR17-34" transform="scale(0.996264)"/>
       <use xlink:href="#CMR17-30" transform="translate(45.690477 0) scale(0.996264)"/>
      </g>
     </g>
    </g>
    <g id="xtick_6">
     <g id="line2d_11">
      <path d="M 284.009751 442.346597 
L 284.009751 10.8 
" clip-path="url(#p6157178475)" style="fill: none; stroke: #b0b0b0; stroke-width: 0.8; stroke-linecap: square"/>
     </g>
     <g id="line2d_12">
      <g>
       <use xlink:href="#m70133a2021" x="284.009751" y="442.346597" style="stroke: #000000; stroke-width: 0.8"/>
      </g>
     </g>
     <g id="text_6">
      <!-- 50 -->
      <g transform="translate(273.957846 464.56729) scale(0.22 -0.22)">
       <defs>
        <path id="CMR17-35" d="M 730 3692 
C 794 3666 1056 3584 1325 3584 
C 1920 3584 2246 3911 2432 4100 
C 2432 4157 2432 4192 2394 4192 
C 2387 4192 2374 4192 2323 4163 
C 2099 4058 1837 3973 1517 3973 
C 1325 3973 1037 3999 723 4139 
C 653 4171 640 4171 634 4171 
C 602 4171 595 4164 595 4037 
L 595 2203 
C 595 2089 595 2057 659 2057 
C 691 2057 704 2070 736 2114 
C 941 2401 1222 2522 1542 2522 
C 1766 2522 2246 2382 2246 1289 
C 2246 1085 2246 715 2054 421 
C 1894 159 1645 25 1370 25 
C 947 25 518 320 403 814 
C 429 807 480 795 506 795 
C 589 795 749 840 749 1038 
C 749 1210 627 1280 506 1280 
C 358 1280 262 1190 262 1011 
C 262 454 704 -128 1382 -128 
C 2042 -128 2669 440 2669 1264 
C 2669 2030 2170 2624 1549 2624 
C 1222 2624 947 2503 730 2274 
L 730 3692 
z
" transform="scale(0.015625)"/>
       </defs>
       <use xlink:href="#CMR17-35" transform="scale(0.996264)"/>
       <use xlink:href="#CMR17-30" transform="translate(45.690477 0) scale(0.996264)"/>
      </g>
     </g>
    </g>
    <g id="xtick_7">
     <g id="line2d_13">
      <path d="M 324.615235 442.346597 
L 324.615235 10.8 
" clip-path="url(#p6157178475)" style="fill: none; stroke: #b0b0b0; stroke-width: 0.8; stroke-linecap: square"/>
     </g>
     <g id="line2d_14">
      <g>
       <use xlink:href="#m70133a2021" x="324.615235" y="442.346597" style="stroke: #000000; stroke-width: 0.8"/>
      </g>
     </g>
     <g id="text_7">
      <!-- 60 -->
      <g transform="translate(314.56333 464.56729) scale(0.22 -0.22)">
       <defs>
        <path id="CMR17-36" d="M 678 2176 
C 678 3690 1395 4032 1811 4032 
C 1946 4032 2272 4009 2400 3776 
C 2298 3776 2106 3776 2106 3553 
C 2106 3381 2246 3323 2336 3323 
C 2394 3323 2566 3348 2566 3560 
C 2566 3954 2246 4179 1805 4179 
C 1043 4179 243 3390 243 1984 
C 243 253 966 -128 1478 -128 
C 2099 -128 2688 427 2688 1283 
C 2688 2081 2170 2662 1517 2662 
C 1126 2662 838 2407 678 1960 
L 678 2176 
z
M 1478 25 
C 691 25 691 1200 691 1436 
C 691 1896 909 2560 1504 2560 
C 1613 2560 1926 2560 2138 2120 
C 2253 1870 2253 1609 2253 1289 
C 2253 944 2253 690 2118 434 
C 1978 171 1773 25 1478 25 
z
" transform="scale(0.015625)"/>
       </defs>
       <use xlink:href="#CMR17-36" transform="scale(0.996264)"/>
       <use xlink:href="#CMR17-30" transform="translate(45.690477 0) scale(0.996264)"/>
      </g>
     </g>
    </g>
    <g id="xtick_8">
     <g id="line2d_15">
      <path d="M 365.220718 442.346597 
L 365.220718 10.8 
" clip-path="url(#p6157178475)" style="fill: none; stroke: #b0b0b0; stroke-width: 0.8; stroke-linecap: square"/>
     </g>
     <g id="line2d_16">
      <g>
       <use xlink:href="#m70133a2021" x="365.220718" y="442.346597" style="stroke: #000000; stroke-width: 0.8"/>
      </g>
     </g>
     <g id="text_8">
      <!-- 70 -->
      <g transform="translate(355.168813 464.56729) scale(0.22 -0.22)">
       <defs>
        <path id="CMR17-37" d="M 2886 3941 
L 2886 4081 
L 1382 4081 
C 634 4081 621 4165 595 4288 
L 480 4288 
L 294 3094 
L 410 3094 
C 429 3215 474 3540 550 3661 
C 589 3712 1062 3712 1171 3712 
L 2579 3712 
L 1869 2661 
C 1395 1954 1069 999 1069 165 
C 1069 89 1069 -128 1299 -128 
C 1530 -128 1530 89 1530 171 
L 1530 465 
C 1530 1508 1709 2196 2003 2636 
L 2886 3941 
z
" transform="scale(0.015625)"/>
       </defs>
       <use xlink:href="#CMR17-37" transform="scale(0.996264)"/>
       <use xlink:href="#CMR17-30" transform="translate(45.690477 0) scale(0.996264)"/>
      </g>
     </g>
    </g>
    <g id="xtick_9">
     <g id="line2d_17">
      <path d="M 405.826201 442.346597 
L 405.826201 10.8 
" clip-path="url(#p6157178475)" style="fill: none; stroke: #b0b0b0; stroke-width: 0.8; stroke-linecap: square"/>
     </g>
     <g id="line2d_18">
      <g>
       <use xlink:href="#m70133a2021" x="405.826201" y="442.346597" style="stroke: #000000; stroke-width: 0.8"/>
      </g>
     </g>
     <g id="text_9">
      <!-- 80 -->
      <g transform="translate(395.774296 464.56729) scale(0.22 -0.22)">
       <defs>
        <path id="CMR17-38" d="M 1741 2264 
C 2144 2467 2554 2773 2554 3263 
C 2554 3841 1990 4179 1472 4179 
C 890 4179 378 3759 378 3180 
C 378 3021 416 2747 666 2505 
C 730 2442 998 2251 1171 2130 
C 883 1983 211 1634 211 934 
C 211 279 838 -128 1459 -128 
C 2144 -128 2720 362 2720 1010 
C 2720 1590 2330 1857 2074 2029 
L 1741 2264 
z
M 902 2822 
C 851 2854 595 3051 595 3351 
C 595 3739 998 4032 1459 4032 
C 1965 4032 2336 3676 2336 3262 
C 2336 2669 1670 2331 1638 2331 
C 1632 2331 1626 2331 1574 2370 
L 902 2822 
z
M 2080 1519 
C 2176 1449 2483 1240 2483 851 
C 2483 381 2010 25 1472 25 
C 890 25 448 438 448 940 
C 448 1443 838 1862 1280 2060 
L 2080 1519 
z
" transform="scale(0.015625)"/>
       </defs>
       <use xlink:href="#CMR17-38" transform="scale(0.996264)"/>
       <use xlink:href="#CMR17-30" transform="translate(45.690477 0) scale(0.996264)"/>
      </g>
     </g>
    </g>
    <g id="xtick_10">
     <g id="line2d_19">
      <path d="M 446.431684 442.346597 
L 446.431684 10.8 
" clip-path="url(#p6157178475)" style="fill: none; stroke: #b0b0b0; stroke-width: 0.8; stroke-linecap: square"/>
     </g>
     <g id="line2d_20">
      <g>
       <use xlink:href="#m70133a2021" x="446.431684" y="442.346597" style="stroke: #000000; stroke-width: 0.8"/>
      </g>
     </g>
     <g id="text_10">
      <!-- 90 -->
      <g transform="translate(436.37978 464.56729) scale(0.22 -0.22)">
       <defs>
        <path id="CMR17-39" d="M 2253 1864 
C 2253 464 1670 31 1190 31 
C 1043 31 685 31 538 294 
C 704 268 826 357 826 518 
C 826 692 685 749 595 749 
C 538 749 365 723 365 506 
C 365 71 742 -128 1203 -128 
C 1939 -128 2688 674 2688 2073 
C 2688 3817 1971 4179 1485 4179 
C 851 4179 243 3628 243 2778 
C 243 1991 762 1408 1414 1408 
C 1952 1408 2189 1903 2253 2112 
L 2253 1864 
z
M 1427 1510 
C 1254 1510 1011 1542 813 1922 
C 678 2169 678 2461 678 2771 
C 678 3146 678 3405 858 3684 
C 947 3817 1114 4032 1485 4032 
C 2240 4032 2240 2885 2240 2632 
C 2240 2182 2035 1510 1427 1510 
z
" transform="scale(0.015625)"/>
       </defs>
       <use xlink:href="#CMR17-39" transform="scale(0.996264)"/>
       <use xlink:href="#CMR17-30" transform="translate(45.690477 0) scale(0.996264)"/>
      </g>
     </g>
    </g>
    <g id="xtick_11">
     <g id="line2d_21">
      <path d="M 487.037168 442.346597 
L 487.037168 10.8 
" clip-path="url(#p6157178475)" style="fill: none; stroke: #b0b0b0; stroke-width: 0.8; stroke-linecap: square"/>
     </g>
     <g id="line2d_22">
      <g>
       <use xlink:href="#m70133a2021" x="487.037168" y="442.346597" style="stroke: #000000; stroke-width: 0.8"/>
      </g>
     </g>
     <g id="text_11">
      <!-- 100 -->
      <g transform="translate(471.95931 464.56729) scale(0.22 -0.22)">
       <use xlink:href="#CMR17-31" transform="scale(0.996264)"/>
       <use xlink:href="#CMR17-30" transform="translate(45.690477 0) scale(0.996264)"/>
       <use xlink:href="#CMR17-30" transform="translate(91.380954 0) scale(0.996264)"/>
      </g>
     </g>
    </g>
    <g id="text_12">
     <!--  Epoch  -->
     <g transform="translate(294.88712 488.74302) scale(0.23 -0.23)">
      <defs>
       <path id="CMR17-45" d="M 3885 1615 
L 3770 1615 
C 3629 676 3546 166 2419 166 
L 1530 166 
C 1274 166 1261 197 1261 414 
L 1261 2176 
L 1862 2176 
C 2464 2176 2522 1960 2522 1430 
L 2637 1430 
L 2637 3081 
L 2522 3081 
C 2522 2557 2464 2342 1862 2342 
L 1261 2342 
L 1261 3913 
C 1261 4128 1274 4160 1530 4160 
L 2406 4160 
C 3398 4160 3514 3769 3603 2929 
L 3718 2929 
L 3565 4325 
L 326 4325 
L 326 4160 
C 768 4160 838 4160 838 3874 
L 838 451 
C 838 166 768 166 326 166 
L 326 0 
L 3654 0 
L 3885 1615 
z
" transform="scale(0.015625)"/>
       <path id="CMR17-70" d="M 1408 -1063 
C 998 -1063 973 -1037 973 -789 
L 973 402 
C 1158 134 1427 -38 1766 -38 
C 2406 -38 3053 523 3053 1388 
C 3053 2191 2496 2802 1837 2802 
C 1453 2802 1139 2592 960 2338 
L 960 2802 
L 198 2732 
L 198 2567 
C 576 2567 634 2528 634 2223 
L 634 -789 
C 634 -1031 608 -1063 198 -1063 
L 198 -1228 
C 352 -1216 634 -1216 800 -1216 
C 966 -1216 1254 -1216 1408 -1228 
L 1408 -1063 
z
M 973 2012 
C 973 2102 973 2235 1222 2471 
C 1254 2497 1472 2688 1792 2688 
C 2259 2688 2643 2108 2643 1382 
C 2643 656 2234 64 1728 64 
C 1498 64 1248 172 1056 472 
C 973 612 973 650 973 752 
L 973 2012 
z
" transform="scale(0.015625)"/>
       <path id="CMR17-6f" d="M 2758 1356 
C 2758 2176 2163 2816 1466 2816 
C 768 2816 173 2176 173 1356 
C 173 551 768 -64 1466 -64 
C 2163 -64 2758 551 2758 1356 
z
M 1466 51 
C 1165 51 909 230 762 480 
C 602 767 582 1126 582 1408 
C 582 1677 595 2010 762 2298 
C 890 2509 1139 2714 1466 2714 
C 1754 2714 1997 2554 2150 2330 
C 2349 2029 2349 1607 2349 1408 
C 2349 1158 2336 775 2163 467 
C 1984 173 1709 51 1466 51 
z
" transform="scale(0.015625)"/>
       <path id="CMR17-63" d="M 2234 2240 
C 2112 2240 1933 2240 1933 2017 
C 1933 1838 2080 1787 2163 1787 
C 2208 1787 2394 1807 2394 2024 
C 2394 2467 1958 2803 1466 2803 
C 787 2803 211 2178 211 1363 
C 211 516 813 -64 1466 -64 
C 2259 -64 2458 677 2458 748 
C 2458 774 2451 793 2406 793 
C 2362 793 2355 787 2330 703 
C 2163 180 1798 51 1523 51 
C 1114 51 621 427 621 1369 
C 621 2338 1094 2688 1472 2688 
C 1722 2688 2093 2573 2234 2240 
z
" transform="scale(0.015625)"/>
       <path id="CMR17-68" d="M 2656 1933 
C 2656 2259 2592 2790 1837 2790 
C 1312 2790 1056 2368 979 2157 
L 973 2157 
L 973 4396 
L 211 4326 
L 211 4160 
C 589 4160 646 4122 646 3817 
L 646 426 
C 646 184 621 153 211 153 
L 211 -13 
C 365 0 646 0 813 0 
C 979 0 1267 0 1421 -13 
L 1421 153 
C 1011 153 986 178 986 428 
L 986 1658 
C 986 2247 1344 2688 1792 2688 
C 2266 2688 2317 2266 2317 1958 
L 2317 428 
C 2317 184 2291 153 1882 153 
L 1882 -13 
C 2035 0 2317 0 2483 0 
C 2650 0 2938 0 3091 -13 
L 3091 153 
C 2682 153 2656 178 2656 428 
L 2656 1933 
z
" transform="scale(0.015625)"/>
      </defs>
      <use xlink:href="#CMR17-45" transform="scale(0.996264)"/>
      <use xlink:href="#CMR17-70" transform="translate(62.586301 0) scale(0.996264)"/>
      <use xlink:href="#CMR17-6f" transform="translate(116.084109 0) scale(0.996264)"/>
      <use xlink:href="#CMR17-63" transform="translate(164.377025 0) scale(0.996264)"/>
      <use xlink:href="#CMR17-68" transform="translate(202.260231 0) scale(0.996264)"/>
     </g>
    </g>
   </g>
   <g id="matplotlib.axis_2">
    <g id="ytick_1">
     <g id="line2d_23">
      <path d="M 74.829989 395.943737 
L 573.170011 395.943737 
" clip-path="url(#p6157178475)" style="fill: none; stroke: #b0b0b0; stroke-width: 0.8; stroke-linecap: square"/>
     </g>
     <g id="line2d_24">
      <defs>
       <path id="m54c1b26155" d="M 0 0 
L -3.5 0 
" style="stroke: #000000; stroke-width: 0.8"/>
      </defs>
      <g>
       <use xlink:href="#m54c1b26155" x="74.829989" y="395.943737" style="stroke: #000000; stroke-width: 0.8"/>
      </g>
     </g>
     <g id="text_13">
      <!-- 20 -->
      <g transform="translate(47.726179 403.554084) scale(0.22 -0.22)">
       <use xlink:href="#CMR17-32" transform="scale(0.996264)"/>
       <use xlink:href="#CMR17-30" transform="translate(45.690477 0) scale(0.996264)"/>
      </g>
     </g>
    </g>
    <g id="ytick_2">
     <g id="line2d_25">
      <path d="M 74.829989 349.540877 
L 573.170011 349.540877 
" clip-path="url(#p6157178475)" style="fill: none; stroke: #b0b0b0; stroke-width: 0.8; stroke-linecap: square"/>
     </g>
     <g id="line2d_26">
      <g>
       <use xlink:href="#m54c1b26155" x="74.829989" y="349.540877" style="stroke: #000000; stroke-width: 0.8"/>
      </g>
     </g>
     <g id="text_14">
      <!-- 30 -->
      <g transform="translate(47.726179 357.151224) scale(0.22 -0.22)">
       <use xlink:href="#CMR17-33" transform="scale(0.996264)"/>
       <use xlink:href="#CMR17-30" transform="translate(45.690477 0) scale(0.996264)"/>
      </g>
     </g>
    </g>
    <g id="ytick_3">
     <g id="line2d_27">
      <path d="M 74.829989 303.138017 
L 573.170011 303.138017 
" clip-path="url(#p6157178475)" style="fill: none; stroke: #b0b0b0; stroke-width: 0.8; stroke-linecap: square"/>
     </g>
     <g id="line2d_28">
      <g>
       <use xlink:href="#m54c1b26155" x="74.829989" y="303.138017" style="stroke: #000000; stroke-width: 0.8"/>
      </g>
     </g>
     <g id="text_15">
      <!-- 40 -->
      <g transform="translate(47.726179 310.748364) scale(0.22 -0.22)">
       <use xlink:href="#CMR17-34" transform="scale(0.996264)"/>
       <use xlink:href="#CMR17-30" transform="translate(45.690477 0) scale(0.996264)"/>
      </g>
     </g>
    </g>
    <g id="ytick_4">
     <g id="line2d_29">
      <path d="M 74.829989 256.735157 
L 573.170011 256.735157 
" clip-path="url(#p6157178475)" style="fill: none; stroke: #b0b0b0; stroke-width: 0.8; stroke-linecap: square"/>
     </g>
     <g id="line2d_30">
      <g>
       <use xlink:href="#m54c1b26155" x="74.829989" y="256.735157" style="stroke: #000000; stroke-width: 0.8"/>
      </g>
     </g>
     <g id="text_16">
      <!-- 50 -->
      <g transform="translate(47.726179 264.345504) scale(0.22 -0.22)">
       <use xlink:href="#CMR17-35" transform="scale(0.996264)"/>
       <use xlink:href="#CMR17-30" transform="translate(45.690477 0) scale(0.996264)"/>
      </g>
     </g>
    </g>
    <g id="ytick_5">
     <g id="line2d_31">
      <path d="M 74.829989 210.332297 
L 573.170011 210.332297 
" clip-path="url(#p6157178475)" style="fill: none; stroke: #b0b0b0; stroke-width: 0.8; stroke-linecap: square"/>
     </g>
     <g id="line2d_32">
      <g>
       <use xlink:href="#m54c1b26155" x="74.829989" y="210.332297" style="stroke: #000000; stroke-width: 0.8"/>
      </g>
     </g>
     <g id="text_17">
      <!-- 60 -->
      <g transform="translate(47.726179 217.942644) scale(0.22 -0.22)">
       <use xlink:href="#CMR17-36" transform="scale(0.996264)"/>
       <use xlink:href="#CMR17-30" transform="translate(45.690477 0) scale(0.996264)"/>
      </g>
     </g>
    </g>
    <g id="ytick_6">
     <g id="line2d_33">
      <path d="M 74.829989 163.929438 
L 573.170011 163.929438 
" clip-path="url(#p6157178475)" style="fill: none; stroke: #b0b0b0; stroke-width: 0.8; stroke-linecap: square"/>
     </g>
     <g id="line2d_34">
      <g>
       <use xlink:href="#m54c1b26155" x="74.829989" y="163.929438" style="stroke: #000000; stroke-width: 0.8"/>
      </g>
     </g>
     <g id="text_18">
      <!-- 70 -->
      <g transform="translate(47.726179 171.539784) scale(0.22 -0.22)">
       <use xlink:href="#CMR17-37" transform="scale(0.996264)"/>
       <use xlink:href="#CMR17-30" transform="translate(45.690477 0) scale(0.996264)"/>
      </g>
     </g>
    </g>
    <g id="ytick_7">
     <g id="line2d_35">
      <path d="M 74.829989 117.526578 
L 573.170011 117.526578 
" clip-path="url(#p6157178475)" style="fill: none; stroke: #b0b0b0; stroke-width: 0.8; stroke-linecap: square"/>
     </g>
     <g id="line2d_36">
      <g>
       <use xlink:href="#m54c1b26155" x="74.829989" y="117.526578" style="stroke: #000000; stroke-width: 0.8"/>
      </g>
     </g>
     <g id="text_19">
      <!-- 80 -->
      <g transform="translate(47.726179 125.136924) scale(0.22 -0.22)">
       <use xlink:href="#CMR17-38" transform="scale(0.996264)"/>
       <use xlink:href="#CMR17-30" transform="translate(45.690477 0) scale(0.996264)"/>
      </g>
     </g>
    </g>
    <g id="ytick_8">
     <g id="line2d_37">
      <path d="M 74.829989 71.123718 
L 573.170011 71.123718 
" clip-path="url(#p6157178475)" style="fill: none; stroke: #b0b0b0; stroke-width: 0.8; stroke-linecap: square"/>
     </g>
     <g id="line2d_38">
      <g>
       <use xlink:href="#m54c1b26155" x="74.829989" y="71.123718" style="stroke: #000000; stroke-width: 0.8"/>
      </g>
     </g>
     <g id="text_20">
      <!-- 90 -->
      <g transform="translate(47.726179 78.734065) scale(0.22 -0.22)">
       <use xlink:href="#CMR17-39" transform="scale(0.996264)"/>
       <use xlink:href="#CMR17-30" transform="translate(45.690477 0) scale(0.996264)"/>
      </g>
     </g>
    </g>
    <g id="ytick_9">
     <g id="line2d_39">
      <path d="M 74.829989 24.720858 
L 573.170011 24.720858 
" clip-path="url(#p6157178475)" style="fill: none; stroke: #b0b0b0; stroke-width: 0.8; stroke-linecap: square"/>
     </g>
     <g id="line2d_40">
      <g>
       <use xlink:href="#m54c1b26155" x="74.829989" y="24.720858" style="stroke: #000000; stroke-width: 0.8"/>
      </g>
     </g>
     <g id="text_21">
      <!-- 100 -->
      <g transform="translate(37.674274 32.331205) scale(0.22 -0.22)">
       <use xlink:href="#CMR17-31" transform="scale(0.996264)"/>
       <use xlink:href="#CMR17-30" transform="translate(45.690477 0) scale(0.996264)"/>
       <use xlink:href="#CMR17-30" transform="translate(91.380954 0) scale(0.996264)"/>
      </g>
     </g>
    </g>
    <g id="text_22">
     <!--  Training accuracy [\%] -->
     <g transform="translate(27.964925 326.740313) rotate(-90) scale(0.23 -0.23)">
      <defs>
       <path id="CMR17-54" d="M 3981 4326 
L 288 4326 
L 179 2918 
L 294 2918 
C 378 3976 467 4160 1453 4160 
C 1568 4160 1754 4160 1805 4154 
C 1926 4135 1926 4058 1926 3912 
L 1926 459 
C 1926 230 1907 160 1376 160 
L 1197 160 
L 1197 0 
C 1504 0 1824 0 2138 0 
C 2451 0 2771 0 3078 0 
L 3078 160 
L 2899 160 
C 2368 160 2349 230 2349 459 
L 2349 3912 
C 2349 4052 2349 4129 2464 4154 
C 2515 4160 2701 4160 2816 4160 
C 3795 4160 3891 3976 3974 2918 
L 4090 2918 
L 3981 4326 
z
" transform="scale(0.015625)"/>
       <path id="CMR17-72" d="M 960 1497 
C 960 2112 1222 2688 1702 2688 
C 1747 2688 1792 2682 1837 2662 
C 1837 2662 1696 2617 1696 2452 
C 1696 2298 1818 2234 1914 2234 
C 1990 2234 2131 2279 2131 2458 
C 2131 2663 1926 2790 1709 2790 
C 1222 2790 1011 2317 947 2093 
L 941 2093 
L 941 2790 
L 198 2720 
L 198 2554 
C 576 2554 634 2515 634 2208 
L 634 428 
C 634 184 608 153 198 153 
L 198 -13 
C 352 0 646 0 813 0 
C 998 0 1325 0 1498 -13 
L 1498 153 
C 1037 153 960 153 960 440 
L 960 1497 
z
" transform="scale(0.015625)"/>
       <path id="CMR17-61" d="M 2304 1653 
C 2304 2072 2304 2294 2035 2543 
C 1798 2752 1523 2816 1306 2816 
C 800 2816 435 2407 435 1971 
C 435 1728 627 1728 666 1728 
C 749 1728 896 1778 896 1954 
C 896 2112 774 2181 666 2181 
C 640 2181 608 2174 589 2168 
C 723 2592 1069 2714 1293 2714 
C 1613 2714 1965 2429 1965 1885 
L 1965 1600 
C 1587 1600 1133 1549 774 1357 
C 371 1133 256 813 256 570 
C 256 77 832 -64 1171 -64 
C 1523 -64 1850 139 1990 511 
C 2003 233 2182 -18 2464 -18 
C 2598 -18 2938 70 2938 567 
L 2938 920 
L 2822 920 
L 2822 562 
C 2822 178 2650 128 2566 128 
C 2304 128 2304 458 2304 738 
L 2304 1653 
z
M 1965 870 
C 1965 317 1568 38 1216 38 
C 896 38 646 275 646 570 
C 646 761 730 1100 1101 1305 
C 1408 1478 1760 1504 1965 1504 
L 1965 870 
z
" transform="scale(0.015625)"/>
       <path id="CMR17-69" d="M 992 3909 
C 992 4049 877 4170 730 4170 
C 589 4170 467 4056 467 3909 
C 467 3769 582 3648 730 3648 
C 870 3648 992 3763 992 3909 
z
M 243 2706 
L 243 2541 
C 602 2541 653 2502 653 2197 
L 653 427 
C 653 184 627 153 218 153 
L 218 -13 
C 371 0 646 0 806 0 
C 960 0 1222 0 1370 -13 
L 1370 153 
C 992 153 979 191 979 420 
L 979 2776 
L 243 2706 
z
" transform="scale(0.015625)"/>
       <path id="CMR17-6e" d="M 2656 1933 
C 2656 2259 2592 2790 1837 2790 
C 1331 2790 1069 2400 973 2144 
L 966 2144 
L 966 2790 
L 211 2720 
L 211 2554 
C 589 2554 646 2515 646 2208 
L 646 428 
C 646 184 621 153 211 153 
L 211 -13 
C 365 0 646 0 813 0 
C 979 0 1267 0 1421 -13 
L 1421 153 
C 1011 153 986 178 986 428 
L 986 1658 
C 986 2247 1344 2688 1792 2688 
C 2266 2688 2317 2266 2317 1958 
L 2317 428 
C 2317 184 2291 153 1882 153 
L 1882 -13 
C 2035 0 2317 0 2483 0 
C 2650 0 2938 0 3091 -13 
L 3091 153 
C 2682 153 2656 178 2656 428 
L 2656 1933 
z
" transform="scale(0.015625)"/>
       <path id="CMR17-67" d="M 710 1164 
C 832 1068 1043 960 1299 960 
C 1805 960 2240 1357 2240 1888 
C 2240 2054 2189 2310 1997 2509 
C 2176 2692 2438 2752 2586 2752 
C 2611 2752 2650 2752 2682 2734 
C 2656 2728 2598 2703 2598 2605 
C 2598 2527 2656 2471 2739 2471 
C 2835 2471 2886 2533 2886 2614 
C 2886 2731 2790 2854 2586 2854 
C 2330 2854 2106 2738 1926 2580 
C 1734 2753 1504 2816 1299 2816 
C 794 2816 358 2419 358 1888 
C 358 1522 570 1292 634 1228 
C 442 1004 442 743 442 711 
C 442 545 506 302 723 168 
C 390 85 128 -169 128 -486 
C 128 -943 736 -1280 1466 -1280 
C 2170 -1280 2803 -956 2803 -479 
C 2803 384 1856 384 1363 384 
C 1216 384 954 384 922 391 
C 723 423 589 602 589 826 
C 589 883 589 1024 710 1164 
z
M 1299 1068 
C 736 1068 736 1760 736 1889 
C 736 2016 736 2708 1299 2708 
C 1862 2708 1862 2016 1862 1889 
C 1862 1760 1862 1068 1299 1068 
z
M 1466 -1171 
C 826 -1171 384 -835 384 -486 
C 384 -289 493 -105 634 -4 
C 794 104 858 104 1293 104 
C 1818 104 2547 104 2547 -486 
C 2547 -835 2106 -1171 1466 -1171 
z
" transform="scale(0.015625)"/>
       <path id="CMR17-75" d="M 1882 2693 
L 1882 2528 
C 2259 2528 2317 2489 2317 2186 
L 2317 1032 
C 2317 500 2029 38 1555 38 
C 1030 38 986 348 986 678 
L 986 2763 
L 211 2693 
L 211 2528 
C 467 2528 640 2528 646 2274 
L 646 1058 
C 646 633 646 361 813 183 
C 896 101 1056 -64 1517 -64 
C 2061 -64 2272 377 2323 506 
L 2330 506 
L 2330 -63 
L 3091 -63 
L 3091 128 
C 2714 128 2656 166 2656 473 
L 2656 2763 
L 1882 2693 
z
" transform="scale(0.015625)"/>
       <path id="CMR17-79" d="M 2496 2197 
C 2656 2586 2944 2586 3034 2586 
L 3034 2752 
C 2912 2752 2752 2752 2630 2752 
C 2496 2752 2285 2752 2157 2758 
L 2157 2592 
C 2400 2573 2406 2394 2406 2343 
C 2406 2280 2394 2248 2362 2171 
L 1664 449 
L 902 2306 
C 870 2382 870 2426 870 2433 
C 870 2573 1018 2586 1171 2586 
L 1171 2758 
C 1018 2752 742 2752 582 2752 
C 410 2752 205 2752 64 2758 
L 64 2586 
C 410 2586 448 2554 531 2350 
L 1485 15 
C 1197 -738 1030 -1178 627 -1178 
C 557 -1178 397 -1159 282 -1044 
C 429 -1031 493 -942 493 -833 
C 493 -725 416 -629 288 -629 
C 147 -629 77 -725 77 -840 
C 77 -1095 339 -1280 627 -1280 
C 998 -1280 1229 -922 1357 -604 
L 2496 2197 
z
" transform="scale(0.015625)"/>
       <path id="CMR17-5b" d="M 1504 -1600 
L 1504 -1377 
L 902 -1377 
L 902 4544 
L 1504 4544 
L 1504 4767 
L 678 4767 
L 678 -1600 
L 1504 -1600 
z
" transform="scale(0.015625)"/>
       <path id="CMR17-25" d="M 4640 959 
C 4640 1698 4275 2240 3846 2240 
C 3411 2240 2970 1736 2970 959 
C 2970 183 3405 -320 3846 -320 
C 4275 -320 4640 215 4640 959 
z
M 3853 -218 
C 3686 -218 3270 -66 3270 959 
C 3270 1991 3686 2138 3853 2138 
C 4205 2138 4525 1634 4525 959 
C 4525 285 4205 -218 3853 -218 
z
M 4083 4577 
C 4128 4647 4134 4653 4134 4685 
C 4134 4761 4077 4800 4026 4800 
C 3962 4800 3936 4756 3891 4706 
C 3520 4190 3008 4134 2746 4134 
C 2106 4134 1715 4494 1594 4607 
C 1510 4682 1389 4800 1171 4800 
C 736 4800 294 4296 294 3519 
C 294 2743 730 2240 1171 2240 
C 1600 2240 1965 2778 1965 3527 
C 1965 3969 1830 4270 1811 4308 
C 2202 4064 2586 4032 2752 4032 
C 3162 4032 3456 4183 3616 4289 
L 3622 4283 
L 858 -84 
C 800 -174 800 -187 800 -206 
C 800 -276 858 -320 915 -320 
C 973 -320 992 -289 1037 -218 
L 4083 4577 
z
M 1178 2342 
C 1011 2342 595 2494 595 3519 
C 595 4551 1011 4698 1178 4698 
C 1530 4698 1850 4194 1850 3519 
C 1850 2845 1530 2342 1178 2342 
z
" transform="scale(0.015625)"/>
       <path id="CMR17-5d" d="M 915 4767 
L 90 4767 
L 90 4544 
L 691 4544 
L 691 -1377 
L 90 -1377 
L 90 -1600 
L 915 -1600 
L 915 4767 
z
" transform="scale(0.015625)"/>
      </defs>
      <use xlink:href="#CMR17-54" transform="scale(0.996264)"/>
      <use xlink:href="#CMR17-72" transform="translate(58.702625 0) scale(0.996264)"/>
      <use xlink:href="#CMR17-61" transform="translate(93.983393 0) scale(0.996264)"/>
      <use xlink:href="#CMR17-69" transform="translate(139.67387 0) scale(0.996264)"/>
      <use xlink:href="#CMR17-6e" transform="translate(164.544929 0) scale(0.996264)"/>
      <use xlink:href="#CMR17-69" transform="translate(215.440298 0) scale(0.996264)"/>
      <use xlink:href="#CMR17-6e" transform="translate(240.311357 0) scale(0.996264)"/>
      <use xlink:href="#CMR17-67" transform="translate(291.206727 0) scale(0.996264)"/>
      <use xlink:href="#CMR17-61" transform="translate(366.97317 0) scale(0.996264)"/>
      <use xlink:href="#CMR17-63" transform="translate(412.663647 0) scale(0.996264)"/>
      <use xlink:href="#CMR17-63" transform="translate(453.149308 0) scale(0.996264)"/>
      <use xlink:href="#CMR17-75" transform="translate(493.634968 0) scale(0.996264)"/>
      <use xlink:href="#CMR17-72" transform="translate(544.530338 0) scale(0.996264)"/>
      <use xlink:href="#CMR17-61" transform="translate(579.811106 0) scale(0.996264)"/>
      <use xlink:href="#CMR17-63" transform="translate(625.501583 0) scale(0.996264)"/>
      <use xlink:href="#CMR17-79" transform="translate(665.987243 0) scale(0.996264)"/>
      <use xlink:href="#CMR17-5b" transform="translate(744.356125 0) scale(0.996264)"/>
      <use xlink:href="#CMR17-25" transform="translate(769.227184 0) scale(0.996264)"/>
      <use xlink:href="#CMR17-5d" transform="translate(846.146774 0) scale(0.996264)"/>
     </g>
    </g>
   </g>
   <g id="patch_3">
    <path d="M 487.447324 256.735157 
L 498.111391 256.735157 
L 498.111391 24.720858 
L 487.447324 24.720858 
L 487.447324 256.735157 
z
" clip-path="url(#p6157178475)" style="fill: #75aff4; stroke: #0000ff; stroke-linejoin: miter"/>
   </g>
   <g id="line2d_41">
    <path d="M 492.779357 256.735157 
L 492.779357 256.735157 
" clip-path="url(#p6157178475)" style="fill: none; stroke: #0000ff; stroke-linecap: square"/>
   </g>
   <g id="line2d_42">
    <path d="M 492.779357 24.720858 
L 492.779357 24.720858 
" clip-path="url(#p6157178475)" style="fill: none; stroke: #0000ff; stroke-linecap: square"/>
   </g>
   <g id="line2d_43">
    <path d="M 490.113341 256.735157 
L 495.445374 256.735157 
" clip-path="url(#p6157178475)" style="fill: none; stroke: #0000ff; stroke-linecap: square"/>
   </g>
   <g id="line2d_44">
    <path d="M 490.113341 24.720858 
L 495.445374 24.720858 
" clip-path="url(#p6157178475)" style="fill: none; stroke: #0000ff; stroke-linecap: square"/>
   </g>
   <g id="line2d_45"/>
   <g id="patch_4">
    <path d="M 502.212954 228.893441 
L 512.877021 228.893441 
L 512.877021 150.00858 
L 502.212954 150.00858 
L 502.212954 228.893441 
z
" clip-path="url(#p6157178475)" style="fill: #e0ee89; stroke: #c4e302; stroke-linejoin: miter"/>
   </g>
   <g id="line2d_46">
    <path d="M 507.544988 228.893441 
L 507.544988 340.260305 
" clip-path="url(#p6157178475)" style="fill: none; stroke: #c4e302; stroke-linecap: square"/>
   </g>
   <g id="line2d_47">
    <path d="M 507.544988 150.00858 
L 507.544988 71.123718 
" clip-path="url(#p6157178475)" style="fill: none; stroke: #c4e302; stroke-linecap: square"/>
   </g>
   <g id="line2d_48">
    <path d="M 504.878971 340.260305 
L 510.211004 340.260305 
" clip-path="url(#p6157178475)" style="fill: none; stroke: #c4e302; stroke-linecap: square"/>
   </g>
   <g id="line2d_49">
    <path d="M 504.878971 71.123718 
L 510.211004 71.123718 
" clip-path="url(#p6157178475)" style="fill: none; stroke: #c4e302; stroke-linecap: square"/>
   </g>
   <g id="line2d_50"/>
   <g id="patch_5">
    <path d="M 518.61921 245.134442 
L 529.283277 245.134442 
L 529.283277 205.692011 
L 518.61921 205.692011 
L 518.61921 245.134442 
z
" clip-path="url(#p6157178475)" style="fill: #ea83e2; stroke: #f311e2; stroke-linejoin: miter"/>
   </g>
   <g id="line2d_51">
    <path d="M 523.951244 245.134442 
L 523.951244 293.857445 
" clip-path="url(#p6157178475)" style="fill: none; stroke: #f311e2; stroke-linecap: square"/>
   </g>
   <g id="line2d_52">
    <path d="M 523.951244 205.692011 
L 523.951244 150.00858 
" clip-path="url(#p6157178475)" style="fill: none; stroke: #f311e2; stroke-linecap: square"/>
   </g>
   <g id="line2d_53">
    <path d="M 521.285227 293.857445 
L 526.61726 293.857445 
" clip-path="url(#p6157178475)" style="fill: none; stroke: #f311e2; stroke-linecap: square"/>
   </g>
   <g id="line2d_54">
    <path d="M 521.285227 150.00858 
L 526.61726 150.00858 
" clip-path="url(#p6157178475)" style="fill: none; stroke: #f311e2; stroke-linecap: square"/>
   </g>
   <g id="line2d_55">
    <defs>
     <path id="mf89735f5c7" d="M 0 1.5 
C 0.397805 1.5 0.77937 1.341951 1.06066 1.06066 
C 1.341951 0.77937 1.5 0.397805 1.5 0 
C 1.5 -0.397805 1.341951 -0.77937 1.06066 -1.06066 
C 0.77937 -1.341951 0.397805 -1.5 0 -1.5 
C -0.397805 -1.5 -0.77937 -1.341951 -1.06066 -1.06066 
C -1.341951 -0.77937 -1.5 -0.397805 -1.5 0 
C -1.5 0.397805 -1.341951 0.77937 -1.06066 1.06066 
C -0.77937 1.341951 -0.397805 1.5 0 1.5 
z
" style="stroke: #f311e2; stroke-opacity: 0.8"/>
    </defs>
    <g clip-path="url(#p6157178475)">
     <use xlink:href="#mf89735f5c7" x="523.951244" y="317.058875" style="fill: #f311e2; fill-opacity: 0.8; stroke: #f311e2; stroke-opacity: 0.8"/>
     <use xlink:href="#mf89735f5c7" x="523.951244" y="321.699161" style="fill: #f311e2; fill-opacity: 0.8; stroke: #f311e2; stroke-opacity: 0.8"/>
     <use xlink:href="#mf89735f5c7" x="523.951244" y="126.80715" style="fill: #f311e2; fill-opacity: 0.8; stroke: #f311e2; stroke-opacity: 0.8"/>
    </g>
   </g>
   <g id="patch_6">
    <path d="M 535.025466 256.735157 
L 545.689533 256.735157 
L 545.689533 248.925305 
L 535.025466 248.925305 
L 535.025466 256.735157 
z
" clip-path="url(#p6157178475)" style="fill: #99fc99; stroke: #008000; stroke-linejoin: miter"/>
   </g>
   <g id="line2d_56">
    <path d="M 540.357499 256.735157 
L 540.357499 267.809269 
" clip-path="url(#p6157178475)" style="fill: none; stroke: #008000; stroke-linecap: square"/>
   </g>
   <g id="line2d_57">
    <path d="M 540.357499 248.925305 
L 540.357499 238.174013 
" clip-path="url(#p6157178475)" style="fill: none; stroke: #008000; stroke-linecap: square"/>
   </g>
   <g id="line2d_58">
    <path d="M 537.691483 267.809269 
L 543.023516 267.809269 
" clip-path="url(#p6157178475)" style="fill: none; stroke: #008000; stroke-linecap: square"/>
   </g>
   <g id="line2d_59">
    <path d="M 537.691483 238.174013 
L 543.023516 238.174013 
" clip-path="url(#p6157178475)" style="fill: none; stroke: #008000; stroke-linecap: square"/>
   </g>
   <g id="line2d_60">
    <defs>
     <path id="m8e303c5970" d="M 0 1.5 
C 0.397805 1.5 0.77937 1.341951 1.06066 1.06066 
C 1.341951 0.77937 1.5 0.397805 1.5 0 
C 1.5 -0.397805 1.341951 -0.77937 1.06066 -1.06066 
C 0.77937 -1.341951 0.397805 -1.5 0 -1.5 
C -0.397805 -1.5 -0.77937 -1.341951 -1.06066 -1.06066 
C -1.341951 -0.77937 -1.5 -0.397805 -1.5 0 
C -1.5 0.397805 -1.341951 0.77937 -1.06066 1.06066 
C -0.77937 1.341951 -0.397805 1.5 0 1.5 
z
" style="stroke: #008000; stroke-opacity: 0.8"/>
    </defs>
    <g clip-path="url(#p6157178475)">
     <use xlink:href="#m8e303c5970" x="540.357499" y="294.541215" style="fill: #008000; fill-opacity: 0.8; stroke: #008000; stroke-opacity: 0.8"/>
     <use xlink:href="#m8e303c5970" x="540.357499" y="276.754472" style="fill: #008000; fill-opacity: 0.8; stroke: #008000; stroke-opacity: 0.8"/>
     <use xlink:href="#m8e303c5970" x="540.357499" y="289.880057" style="fill: #008000; fill-opacity: 0.8; stroke: #008000; stroke-opacity: 0.8"/>
     <use xlink:href="#m8e303c5970" x="540.357499" y="289.880057" style="fill: #008000; fill-opacity: 0.8; stroke: #008000; stroke-opacity: 0.8"/>
     <use xlink:href="#m8e303c5970" x="540.357499" y="269.758352" style="fill: #008000; fill-opacity: 0.8; stroke: #008000; stroke-opacity: 0.8"/>
     <use xlink:href="#m8e303c5970" x="540.357499" y="273.306772" style="fill: #008000; fill-opacity: 0.8; stroke: #008000; stroke-opacity: 0.8"/>
     <use xlink:href="#m8e303c5970" x="540.357499" y="323.026283" style="fill: #008000; fill-opacity: 0.8; stroke: #008000; stroke-opacity: 0.8"/>
     <use xlink:href="#m8e303c5970" x="540.357499" y="289.880071" style="fill: #008000; fill-opacity: 0.8; stroke: #008000; stroke-opacity: 0.8"/>
     <use xlink:href="#m8e303c5970" x="540.357499" y="312.418589" style="fill: #008000; fill-opacity: 0.8; stroke: #008000; stroke-opacity: 0.8"/>
     <use xlink:href="#m8e303c5970" x="540.357499" y="344.900591" style="fill: #008000; fill-opacity: 0.8; stroke: #008000; stroke-opacity: 0.8"/>
     <use xlink:href="#m8e303c5970" x="540.357499" y="279.936587" style="fill: #008000; fill-opacity: 0.8; stroke: #008000; stroke-opacity: 0.8"/>
     <use xlink:href="#m8e303c5970" x="540.357499" y="289.217159" style="fill: #008000; fill-opacity: 0.8; stroke: #008000; stroke-opacity: 0.8"/>
     <use xlink:href="#m8e303c5970" x="540.357499" y="140.728008" style="fill: #008000; fill-opacity: 0.8; stroke: #008000; stroke-opacity: 0.8"/>
     <use xlink:href="#m8e303c5970" x="540.357499" y="157.300458" style="fill: #008000; fill-opacity: 0.8; stroke: #008000; stroke-opacity: 0.8"/>
     <use xlink:href="#m8e303c5970" x="540.357499" y="173.872908" style="fill: #008000; fill-opacity: 0.8; stroke: #008000; stroke-opacity: 0.8"/>
     <use xlink:href="#m8e303c5970" x="540.357499" y="207.017807" style="fill: #008000; fill-opacity: 0.8; stroke: #008000; stroke-opacity: 0.8"/>
     <use xlink:href="#m8e303c5970" x="540.357499" y="207.017834" style="fill: #008000; fill-opacity: 0.8; stroke: #008000; stroke-opacity: 0.8"/>
     <use xlink:href="#m8e303c5970" x="540.357499" y="57.20286" style="fill: #008000; fill-opacity: 0.8; stroke: #008000; stroke-opacity: 0.8"/>
     <use xlink:href="#m8e303c5970" x="540.357499" y="233.533727" style="fill: #008000; fill-opacity: 0.8; stroke: #008000; stroke-opacity: 0.8"/>
     <use xlink:href="#m8e303c5970" x="540.357499" y="154.648866" style="fill: #008000; fill-opacity: 0.8; stroke: #008000; stroke-opacity: 0.8"/>
     <use xlink:href="#m8e303c5970" x="540.357499" y="210.332297" style="fill: #008000; fill-opacity: 0.8; stroke: #008000; stroke-opacity: 0.8"/>
     <use xlink:href="#m8e303c5970" x="540.357499" y="150.00858" style="fill: #008000; fill-opacity: 0.8; stroke: #008000; stroke-opacity: 0.8"/>
     <use xlink:href="#m8e303c5970" x="540.357499" y="140.728008" style="fill: #008000; fill-opacity: 0.8; stroke: #008000; stroke-opacity: 0.8"/>
    </g>
   </g>
   <g id="patch_7">
    <path d="M 551.431722 272.644709 
L 562.095788 272.644709 
L 562.095788 240.163205 
L 551.431722 240.163205 
L 551.431722 272.644709 
z
" clip-path="url(#p6157178475)" style="fill: #fa8072; stroke: #ff0000; stroke-linejoin: miter"/>
   </g>
   <g id="line2d_61">
    <path d="M 556.763755 272.644709 
L 556.763755 306.479023 
" clip-path="url(#p6157178475)" style="fill: none; stroke: #ff0000; stroke-linecap: square"/>
   </g>
   <g id="line2d_62">
    <path d="M 556.763755 240.163205 
L 556.763755 206.892523 
" clip-path="url(#p6157178475)" style="fill: none; stroke: #ff0000; stroke-linecap: square"/>
   </g>
   <g id="line2d_63">
    <path d="M 554.097739 306.479023 
L 559.429772 306.479023 
" clip-path="url(#p6157178475)" style="fill: none; stroke: #ff0000; stroke-linecap: square"/>
   </g>
   <g id="line2d_64">
    <path d="M 554.097739 206.892523 
L 559.429772 206.892523 
" clip-path="url(#p6157178475)" style="fill: none; stroke: #ff0000; stroke-linecap: square"/>
   </g>
   <g id="line2d_65">
    <defs>
     <path id="ma068bf7f1f" d="M 0 1.5 
C 0.397805 1.5 0.77937 1.341951 1.06066 1.06066 
C 1.341951 0.77937 1.5 0.397805 1.5 0 
C 1.5 -0.397805 1.341951 -0.77937 1.06066 -1.06066 
C 0.77937 -1.341951 0.397805 -1.5 0 -1.5 
C -0.397805 -1.5 -0.77937 -1.341951 -1.06066 -1.06066 
C -1.341951 -0.77937 -1.5 -0.397805 -1.5 0 
C -1.5 0.397805 -1.341951 0.77937 -1.06066 1.06066 
C -0.77937 1.341951 -0.397805 1.5 0 1.5 
z
" style="stroke: #ff0000; stroke-opacity: 0.8"/>
    </defs>
    <g clip-path="url(#p6157178475)">
     <use xlink:href="#ma068bf7f1f" x="556.763755" y="339.59744" style="fill: #ff0000; fill-opacity: 0.8; stroke: #ff0000; stroke-opacity: 0.8"/>
     <use xlink:href="#ma068bf7f1f" x="556.763755" y="190.445424" style="fill: #ff0000; fill-opacity: 0.8; stroke: #ff0000; stroke-opacity: 0.8"/>
     <use xlink:href="#ma068bf7f1f" x="556.763755" y="187.130868" style="fill: #ff0000; fill-opacity: 0.8; stroke: #ff0000; stroke-opacity: 0.8"/>
     <use xlink:href="#ma068bf7f1f" x="556.763755" y="187.130868" style="fill: #ff0000; fill-opacity: 0.8; stroke: #ff0000; stroke-opacity: 0.8"/>
    </g>
   </g>
   <g id="line2d_66">
    <path d="M 487.037168 442.346597 
L 487.037168 10.8 
" clip-path="url(#p6157178475)" style="fill: none; stroke: #000000; stroke-width: 0.55; stroke-linecap: square"/>
   </g>
   <g id="line2d_67">
    <path d="M 80.982335 246.377376 
L 85.083899 252.384889 
L 89.185463 256.11369 
L 93.287027 251.970578 
L 97.388591 251.763422 
L 101.490155 254.870757 
L 105.591719 255.077912 
L 109.693283 252.7992 
L 113.794847 254.24929 
L 117.896411 253.627823 
L 121.997975 255.492224 
L 126.099538 250.520489 
L 130.201102 254.24929 
L 134.302666 261.085425 
L 138.40423 251.141955 
L 142.505794 254.456445 
L 146.607358 255.492224 
L 150.708922 255.077912 
L 154.810486 254.870757 
L 158.91205 257.356624 
L 163.013614 255.285068 
L 167.115178 251.141955 
L 171.216742 249.691866 
L 175.318306 256.528002 
L 179.41987 260.256803 
L 183.521434 251.970578 
L 187.622998 255.906535 
L 191.724562 255.492224 
L 195.826126 256.735157 
L 199.92769 257.770935 
L 204.029254 252.7992 
L 208.130818 250.520489 
L 212.232382 250.520489 
L 216.333946 250.520489 
L 220.43551 250.313333 
L 224.537074 245.548754 
L 228.638638 251.970578 
L 232.740202 254.663601 
L 236.841766 253.006356 
L 240.94333 258.392402 
L 245.044894 253.420667 
L 249.146458 250.9348 
L 253.248022 252.384889 
L 257.349585 254.042134 
L 261.451149 253.627823 
L 265.552713 248.448932 
L 269.654277 248.241777 
L 273.755841 254.456445 
L 277.857405 251.970578 
L 281.958969 249.277555 
L 286.060533 254.870757 
L 290.162097 256.528002 
L 294.263661 252.177734 
L 298.365225 254.24929 
L 302.466789 249.48471 
L 306.568353 252.384889 
L 310.669917 253.213512 
L 314.771481 250.727644 
L 318.873045 252.384889 
L 322.974609 249.899022 
L 327.076173 252.384889 
L 331.177737 251.349111 
L 335.279301 253.627823 
L 339.380865 254.042134 
L 343.482429 246.998843 
L 347.583993 252.592045 
L 351.685557 252.177734 
L 355.787121 251.970578 
L 359.888685 251.556267 
L 363.990249 250.9348 
L 368.091813 247.62031 
L 372.193377 253.213512 
L 376.294941 250.313333 
L 380.396505 255.492224 
L 384.498069 253.213512 
L 388.599633 255.285068 
L 392.701196 250.9348 
L 396.80276 250.9348 
L 400.904324 254.042134 
L 405.005888 253.420667 
L 409.107452 249.48471 
L 413.209016 254.456445 
L 417.31058 248.863244 
L 421.412144 252.177734 
L 425.513708 250.9348 
L 429.615272 253.420667 
L 433.716836 246.170221 
L 437.8184 249.070399 
L 441.919964 248.863244 
L 446.021528 254.663601 
L 450.123092 248.448932 
L 454.224656 248.863244 
L 458.32622 250.106177 
L 462.427784 250.520489 
L 466.529348 251.556267 
L 470.630912 242.234264 
L 474.732476 245.548754 
L 478.83404 254.24929 
L 482.935604 251.349111 
L 487.037168 244.720131 
" clip-path="url(#p6157178475)" style="fill: none; stroke: #008000; stroke-width: 1.5; stroke-linecap: square"/>
   </g>
   <g id="line2d_68">
    <path d="M 80.982335 257.317433 
L 85.083899 249.29995 
L 89.185463 255.033122 
L 93.287027 254.630008 
L 97.388591 253.868571 
L 101.490155 257.272642 
L 105.591719 250.240549 
L 109.693283 246.433364 
L 113.794847 257.183061 
L 117.896411 253.151925 
L 121.997975 253.868571 
L 126.099538 258.07887 
L 130.201102 252.838392 
L 134.302666 253.420667 
L 138.40423 253.286296 
L 142.505794 255.436236 
L 146.607358 252.121746 
L 150.708922 249.971806 
L 154.810486 255.077912 
L 158.91205 259.512162 
L 163.013614 261.48294 
L 167.115178 252.480069 
L 171.216742 255.704978 
L 175.318306 260.407971 
L 179.41987 248.583304 
L 183.521434 256.824738 
L 187.622998 254.226895 
L 191.724562 263.543299 
L 195.826126 254.182104 
L 199.92769 256.959109 
L 204.029254 265.290125 
L 208.130818 257.093481 
L 212.232382 257.183061 
L 216.333946 248.18019 
L 220.43551 262.647491 
L 224.537074 259.825695 
L 228.638638 247.866657 
L 232.740202 254.76438 
L 236.841766 253.510248 
L 240.94333 253.868571 
L 245.044894 257.093481 
L 249.146458 257.407013 
L 253.248022 249.882225 
L 257.349585 252.256117 
L 261.451149 256.152882 
L 265.552713 250.150968 
L 269.654277 251.270728 
L 273.755841 256.287253 
L 277.857405 256.600786 
L 281.958969 256.690367 
L 286.060533 254.092523 
L 290.162097 255.794559 
L 294.263661 257.810127 
L 298.365225 250.41971 
L 302.466789 256.959109 
L 306.568353 252.927973 
L 310.669917 261.214198 
L 314.771481 253.465458 
L 318.873045 255.257074 
L 322.974609 255.436236 
L 327.076173 257.272642 
L 331.177737 251.987374 
L 335.279301 258.661145 
L 339.380865 252.032165 
L 343.482429 255.525816 
L 347.583993 252.480069 
L 351.685557 257.317433 
L 355.787121 249.882225 
L 359.888685 253.017554 
L 363.990249 253.913362 
L 368.091813 249.971806 
L 372.193377 254.540427 
L 376.294941 248.717675 
L 380.396505 254.674799 
L 384.498069 252.524859 
L 388.599633 258.12366 
L 392.701196 249.837435 
L 396.80276 254.85396 
L 400.904324 249.165579 
L 405.005888 254.361266 
L 409.107452 259.556953 
L 413.209016 250.106177 
L 417.31058 255.033122 
L 421.412144 260.049647 
L 425.513708 256.376834 
L 429.615272 257.586175 
L 433.716836 253.778991 
L 437.8184 255.077912 
L 441.919964 257.227852 
L 446.021528 255.167493 
L 450.123092 256.108092 
L 454.224656 254.495637 
L 458.32622 251.673842 
L 462.427784 254.85396 
L 466.529348 250.554081 
L 470.630912 251.853003 
L 474.732476 258.616354 
L 478.83404 249.479112 
L 482.935604 253.331087 
L 487.037168 260.721503 
" clip-path="url(#p6157178475)" style="fill: none; stroke: #ff0000; stroke-width: 1.5; stroke-linecap: square"/>
   </g>
   <g id="line2d_69">
    <path d="M 80.982335 227.73337 
L 85.083899 190.997773 
L 89.185463 181.33051 
L 93.287027 173.5967 
L 97.388591 179.397058 
L 101.490155 183.263963 
L 105.591719 175.530153 
L 109.693283 163.929438 
L 113.794847 158.12908 
L 117.896411 158.12908 
L 121.997975 150.39527 
L 126.099538 138.794555 
L 130.201102 136.861103 
L 134.302666 131.060745 
L 138.40423 134.92765 
L 142.505794 140.728008 
L 146.607358 121.393483 
L 150.708922 123.326935 
L 154.810486 119.46003 
L 158.91205 131.060745 
L 163.013614 119.46003 
L 167.115178 111.72622 
L 171.216742 119.46003 
L 175.318306 103.99241 
L 179.41987 111.72622 
L 183.521434 113.659673 
L 187.622998 107.859315 
L 191.724562 111.72622 
L 195.826126 111.72622 
L 199.92769 107.859315 
L 204.029254 105.925863 
L 208.130818 105.925863 
L 212.232382 102.058958 
L 216.333946 102.058958 
L 220.43551 98.192053 
L 224.537074 98.192053 
L 228.638638 100.125505 
L 232.740202 98.192053 
L 236.841766 100.125505 
L 240.94333 103.99241 
L 245.044894 103.99241 
L 249.146458 98.192053 
L 253.248022 100.125505 
L 257.349585 98.192053 
L 261.451149 98.192053 
L 265.552713 102.058958 
L 269.654277 98.192053 
L 273.755841 100.125505 
L 277.857405 100.125505 
L 281.958969 102.058958 
L 286.060533 94.325148 
L 290.162097 96.2586 
L 294.263661 96.2586 
L 298.365225 98.192053 
L 302.466789 100.125505 
L 306.568353 98.192053 
L 310.669917 98.192053 
L 314.771481 102.058958 
L 318.873045 98.192053 
L 322.974609 102.058958 
L 327.076173 98.192053 
L 331.177737 96.2586 
L 335.279301 100.125505 
L 339.380865 98.192053 
L 343.482429 102.058958 
L 347.583993 100.125505 
L 351.685557 94.325148 
L 355.787121 100.125505 
L 359.888685 90.458243 
L 363.990249 94.325148 
L 368.091813 98.192053 
L 372.193377 94.325148 
L 376.294941 90.458243 
L 380.396505 88.52479 
L 384.498069 90.458243 
L 388.599633 92.391695 
L 392.701196 92.391695 
L 396.80276 88.52479 
L 400.904324 90.458243 
L 405.005888 90.458243 
L 409.107452 92.391695 
L 413.209016 92.391695 
L 417.31058 86.591338 
L 421.412144 86.591338 
L 425.513708 90.458243 
L 429.615272 92.391695 
L 433.716836 92.391695 
L 437.8184 88.52479 
L 441.919964 88.52479 
L 446.021528 90.458243 
L 450.123092 88.52479 
L 454.224656 90.458243 
L 458.32622 90.458243 
L 462.427784 88.52479 
L 466.529348 92.391695 
L 470.630912 88.52479 
L 474.732476 88.52479 
L 478.83404 90.458243 
L 482.935604 90.458243 
L 487.037168 90.458243 
" clip-path="url(#p6157178475)" style="fill: none; stroke: #0000ff; stroke-width: 1.5; stroke-linecap: square"/>
   </g>
   <g id="line2d_70">
    <path d="M 487.447324 24.720858 
L 498.111391 24.720858 
" clip-path="url(#p6157178475)" style="fill: none; stroke: #000000"/>
   </g>
   <g id="line2d_71">
    <path d="M 502.212954 196.41144 
L 512.877021 196.41144 
" clip-path="url(#p6157178475)" style="fill: none; stroke: #000000"/>
   </g>
   <g id="line2d_72">
    <path d="M 518.61921 228.893441 
L 529.283277 228.893441 
" clip-path="url(#p6157178475)" style="fill: none; stroke: #000000"/>
   </g>
   <g id="line2d_73">
    <path d="M 535.025466 256.735157 
L 545.689533 256.735157 
" clip-path="url(#p6157178475)" style="fill: none; stroke: #000000"/>
   </g>
   <g id="line2d_74">
    <path d="M 551.431722 256.735157 
L 562.095788 256.735157 
" clip-path="url(#p6157178475)" style="fill: none; stroke: #000000"/>
   </g>
   <g id="patch_8">
    <path d="M 74.829989 442.346597 
L 74.829989 10.8 
" style="fill: none; stroke: #000000; stroke-width: 0.8; stroke-linejoin: miter; stroke-linecap: square"/>
   </g>
   <g id="patch_9">
    <path d="M 573.170011 442.346597 
L 573.170011 10.8 
" style="fill: none; stroke: #000000; stroke-width: 0.8; stroke-linejoin: miter; stroke-linecap: square"/>
   </g>
   <g id="patch_10">
    <path d="M 74.829989 442.346597 
L 573.170011 442.346597 
" style="fill: none; stroke: #000000; stroke-width: 0.8; stroke-linejoin: miter; stroke-linecap: square"/>
   </g>
   <g id="patch_11">
    <path d="M 74.829989 10.8 
L 573.170011 10.8 
" style="fill: none; stroke: #000000; stroke-width: 0.8; stroke-linejoin: miter; stroke-linecap: square"/>
   </g>
  </g>
  <g id="axes_2">
   <g id="matplotlib.axis_3">
    <g id="ytick_10">
     <g id="line2d_75">
      <defs>
       <path id="mc05208e44c" d="M 0 0 
L 3.5 0 
" style="stroke: #000000; stroke-width: 0.8"/>
      </defs>
      <g>
       <use xlink:href="#mc05208e44c" x="573.170011" y="395.943737" style="stroke: #000000; stroke-width: 0.8"/>
      </g>
     </g>
     <g id="text_23">
      <!-- 20 -->
      <g transform="translate(580.170011 403.554084) scale(0.22 -0.22)">
       <use xlink:href="#CMR17-32" transform="scale(0.996264)"/>
       <use xlink:href="#CMR17-30" transform="translate(45.690477 0) scale(0.996264)"/>
      </g>
     </g>
    </g>
    <g id="ytick_11">
     <g id="line2d_76">
      <g>
       <use xlink:href="#mc05208e44c" x="573.170011" y="349.540877" style="stroke: #000000; stroke-width: 0.8"/>
      </g>
     </g>
     <g id="text_24">
      <!-- 30 -->
      <g transform="translate(580.170011 357.151224) scale(0.22 -0.22)">
       <use xlink:href="#CMR17-33" transform="scale(0.996264)"/>
       <use xlink:href="#CMR17-30" transform="translate(45.690477 0) scale(0.996264)"/>
      </g>
     </g>
    </g>
    <g id="ytick_12">
     <g id="line2d_77">
      <g>
       <use xlink:href="#mc05208e44c" x="573.170011" y="303.138017" style="stroke: #000000; stroke-width: 0.8"/>
      </g>
     </g>
     <g id="text_25">
      <!-- 40 -->
      <g transform="translate(580.170011 310.748364) scale(0.22 -0.22)">
       <use xlink:href="#CMR17-34" transform="scale(0.996264)"/>
       <use xlink:href="#CMR17-30" transform="translate(45.690477 0) scale(0.996264)"/>
      </g>
     </g>
    </g>
    <g id="ytick_13">
     <g id="line2d_78">
      <g>
       <use xlink:href="#mc05208e44c" x="573.170011" y="256.735157" style="stroke: #000000; stroke-width: 0.8"/>
      </g>
     </g>
     <g id="text_26">
      <!-- 50 -->
      <g transform="translate(580.170011 264.345504) scale(0.22 -0.22)">
       <use xlink:href="#CMR17-35" transform="scale(0.996264)"/>
       <use xlink:href="#CMR17-30" transform="translate(45.690477 0) scale(0.996264)"/>
      </g>
     </g>
    </g>
    <g id="ytick_14">
     <g id="line2d_79">
      <g>
       <use xlink:href="#mc05208e44c" x="573.170011" y="210.332297" style="stroke: #000000; stroke-width: 0.8"/>
      </g>
     </g>
     <g id="text_27">
      <!-- 60 -->
      <g transform="translate(580.170011 217.942644) scale(0.22 -0.22)">
       <use xlink:href="#CMR17-36" transform="scale(0.996264)"/>
       <use xlink:href="#CMR17-30" transform="translate(45.690477 0) scale(0.996264)"/>
      </g>
     </g>
    </g>
    <g id="ytick_15">
     <g id="line2d_80">
      <g>
       <use xlink:href="#mc05208e44c" x="573.170011" y="163.929438" style="stroke: #000000; stroke-width: 0.8"/>
      </g>
     </g>
     <g id="text_28">
      <!-- 70 -->
      <g transform="translate(580.170011 171.539784) scale(0.22 -0.22)">
       <use xlink:href="#CMR17-37" transform="scale(0.996264)"/>
       <use xlink:href="#CMR17-30" transform="translate(45.690477 0) scale(0.996264)"/>
      </g>
     </g>
    </g>
    <g id="ytick_16">
     <g id="line2d_81">
      <g>
       <use xlink:href="#mc05208e44c" x="573.170011" y="117.526578" style="stroke: #000000; stroke-width: 0.8"/>
      </g>
     </g>
     <g id="text_29">
      <!-- 80 -->
      <g transform="translate(580.170011 125.136924) scale(0.22 -0.22)">
       <use xlink:href="#CMR17-38" transform="scale(0.996264)"/>
       <use xlink:href="#CMR17-30" transform="translate(45.690477 0) scale(0.996264)"/>
      </g>
     </g>
    </g>
    <g id="ytick_17">
     <g id="line2d_82">
      <g>
       <use xlink:href="#mc05208e44c" x="573.170011" y="71.123718" style="stroke: #000000; stroke-width: 0.8"/>
      </g>
     </g>
     <g id="text_30">
      <!-- 90 -->
      <g transform="translate(580.170011 78.734065) scale(0.22 -0.22)">
       <use xlink:href="#CMR17-39" transform="scale(0.996264)"/>
       <use xlink:href="#CMR17-30" transform="translate(45.690477 0) scale(0.996264)"/>
      </g>
     </g>
    </g>
    <g id="ytick_18">
     <g id="line2d_83">
      <g>
       <use xlink:href="#mc05208e44c" x="573.170011" y="24.720858" style="stroke: #000000; stroke-width: 0.8"/>
      </g>
     </g>
     <g id="text_31">
      <!-- 100 -->
      <g transform="translate(580.170011 32.331205) scale(0.22 -0.22)">
       <use xlink:href="#CMR17-31" transform="scale(0.996264)"/>
       <use xlink:href="#CMR17-30" transform="translate(45.690477 0) scale(0.996264)"/>
       <use xlink:href="#CMR17-30" transform="translate(91.380954 0) scale(0.996264)"/>
      </g>
     </g>
    </g>
    <g id="text_32">
     <!-- Post training accuracy [\%] -->
     <g transform="translate(631.490651 347.83252) rotate(-90) scale(0.23 -0.23)">
      <defs>
       <path id="CMR17-50" d="M 1267 2042 
L 2291 2042 
C 3117 2042 3718 2578 3718 3184 
C 3718 3791 3130 4352 2291 4352 
L 333 4352 
L 333 4186 
C 774 4186 845 4186 845 3899 
L 845 446 
C 845 160 774 160 333 160 
L 333 0 
C 518 0 858 0 1056 0 
C 1254 0 1594 0 1779 0 
L 1779 160 
C 1338 160 1267 160 1267 446 
L 1267 2042 
z
M 1254 2176 
L 1254 3938 
C 1254 4155 1267 4186 1523 4186 
L 2170 4186 
C 2995 4186 3232 3714 3232 3184 
C 3232 2604 2950 2176 2170 2176 
L 1254 2176 
z
" transform="scale(0.015625)"/>
       <path id="CMR17-73" d="M 1978 2697 
C 1978 2813 1971 2819 1933 2819 
C 1907 2819 1901 2813 1824 2717 
C 1805 2691 1747 2626 1728 2601 
C 1523 2819 1235 2819 1126 2819 
C 416 2819 160 2447 160 2076 
C 160 1498 813 1365 998 1325 
C 1402 1243 1542 1217 1677 1101 
C 1760 1025 1901 884 1901 654 
C 1901 384 1747 38 1158 38 
C 602 38 403 460 288 1021 
C 269 1110 269 1117 218 1117 
C 166 1117 160 1110 160 983 
L 160 63 
C 160 -51 166 -58 205 -58 
C 237 -58 243 -51 275 0 
C 314 57 410 211 448 276 
C 576 103 800 -64 1158 -64 
C 1792 -64 2131 283 2131 784 
C 2131 1112 1958 1285 1875 1362 
C 1683 1561 1459 1606 1190 1657 
C 838 1735 390 1825 390 2217 
C 390 2383 480 2737 1126 2737 
C 1811 2737 1850 2094 1862 1888 
C 1869 1856 1901 1849 1920 1849 
C 1978 1849 1978 1869 1978 1978 
L 1978 2697 
z
" transform="scale(0.015625)"/>
       <path id="CMR17-74" d="M 966 2560 
L 1862 2560 
L 1862 2725 
L 966 2725 
L 966 3904 
L 851 3904 
C 838 3245 614 2668 70 2668 
L 70 2560 
L 627 2560 
L 627 771 
C 627 650 627 -64 1370 -64 
C 1747 -64 1965 306 1965 777 
L 1965 1140 
L 1850 1140 
L 1850 783 
C 1850 344 1677 51 1408 51 
C 1222 51 966 178 966 758 
L 966 2560 
z
" transform="scale(0.015625)"/>
      </defs>
      <use xlink:href="#CMR17-50" transform="scale(0.996264)"/>
      <use xlink:href="#CMR17-6f" transform="translate(59.983847 0) scale(0.996264)"/>
      <use xlink:href="#CMR17-73" transform="translate(105.674324 0) scale(0.996264)"/>
      <use xlink:href="#CMR17-74" transform="translate(141.475661 0) scale(0.996264)"/>
      <use xlink:href="#CMR17-74" transform="translate(206.832395 0) scale(0.996264)"/>
      <use xlink:href="#CMR17-72" transform="translate(242.113163 0) scale(0.996264)"/>
      <use xlink:href="#CMR17-61" transform="translate(277.393931 0) scale(0.996264)"/>
      <use xlink:href="#CMR17-69" transform="translate(323.084408 0) scale(0.996264)"/>
      <use xlink:href="#CMR17-6e" transform="translate(347.955467 0) scale(0.996264)"/>
      <use xlink:href="#CMR17-69" transform="translate(398.850836 0) scale(0.996264)"/>
      <use xlink:href="#CMR17-6e" transform="translate(423.721895 0) scale(0.996264)"/>
      <use xlink:href="#CMR17-67" transform="translate(474.617265 0) scale(0.996264)"/>
      <use xlink:href="#CMR17-61" transform="translate(550.383708 0) scale(0.996264)"/>
      <use xlink:href="#CMR17-63" transform="translate(596.074185 0) scale(0.996264)"/>
      <use xlink:href="#CMR17-63" transform="translate(636.559846 0) scale(0.996264)"/>
      <use xlink:href="#CMR17-75" transform="translate(677.045506 0) scale(0.996264)"/>
      <use xlink:href="#CMR17-72" transform="translate(727.940876 0) scale(0.996264)"/>
      <use xlink:href="#CMR17-61" transform="translate(763.221644 0) scale(0.996264)"/>
      <use xlink:href="#CMR17-63" transform="translate(808.912121 0) scale(0.996264)"/>
      <use xlink:href="#CMR17-79" transform="translate(849.397781 0) scale(0.996264)"/>
      <use xlink:href="#CMR17-5b" transform="translate(927.766664 0) scale(0.996264)"/>
      <use xlink:href="#CMR17-25" transform="translate(952.637722 0) scale(0.996264)"/>
      <use xlink:href="#CMR17-5d" transform="translate(1029.557312 0) scale(0.996264)"/>
     </g>
    </g>
   </g>
   <g id="patch_12">
    <path d="M 74.829989 442.346597 
L 74.829989 10.8 
" style="fill: none; stroke: #000000; stroke-width: 0.8; stroke-linejoin: miter; stroke-linecap: square"/>
   </g>
   <g id="patch_13">
    <path d="M 573.170011 442.346597 
L 573.170011 10.8 
" style="fill: none; stroke: #000000; stroke-width: 0.8; stroke-linejoin: miter; stroke-linecap: square"/>
   </g>
   <g id="patch_14">
    <path d="M 74.829989 442.346597 
L 573.170011 442.346597 
" style="fill: none; stroke: #000000; stroke-width: 0.8; stroke-linejoin: miter; stroke-linecap: square"/>
   </g>
   <g id="patch_15">
    <path d="M 74.829989 10.8 
L 573.170011 10.8 
" style="fill: none; stroke: #000000; stroke-width: 0.8; stroke-linejoin: miter; stroke-linecap: square"/>
   </g>
   <g id="legend_1">
    <g id="patch_16">
     <path d="M 245.447141 432.346597 
L 402.552859 432.346597 
Q 406.552859 432.346597 406.552859 428.346597 
L 406.552859 290.968429 
Q 406.552859 286.968429 402.552859 286.968429 
L 245.447141 286.968429 
Q 241.447141 286.968429 241.447141 290.968429 
L 241.447141 428.346597 
Q 241.447141 432.346597 245.447141 432.346597 
z
" style="fill: #ffffff; opacity: 0.8; stroke: #cccccc; stroke-linejoin: miter"/>
    </g>
    <g id="patch_17">
     <path d="M 249.447141 308.968429 
L 289.447141 308.968429 
L 289.447141 294.968429 
L 249.447141 294.968429 
z
" style="fill: #99fc99; stroke: #008000; stroke-width: 2; stroke-linejoin: miter"/>
    </g>
    <g id="text_33">
     <!-- scenario 1 -->
     <g transform="translate(305.447141 308.968429) scale(0.2 -0.2)">
      <defs>
       <path id="CMR17-65" d="M 2438 1472 
C 2464 1498 2464 1511 2464 1576 
C 2464 2238 2118 2816 1389 2816 
C 710 2816 173 2169 173 1383 
C 173 551 781 -64 1459 -64 
C 2176 -64 2458 607 2458 740 
C 2458 784 2419 784 2406 784 
C 2362 784 2355 771 2330 696 
C 2189 265 1837 51 1504 51 
C 1229 51 954 203 781 480 
C 582 803 582 1176 582 1472 
L 2438 1472 
z
M 589 1568 
C 634 2505 1126 2714 1382 2714 
C 1818 2714 2112 2297 2118 1568 
L 589 1568 
z
" transform="scale(0.015625)"/>
      </defs>
      <use xlink:href="#CMR17-73" transform="scale(0.996264)"/>
      <use xlink:href="#CMR17-63" transform="translate(35.801338 0) scale(0.996264)"/>
      <use xlink:href="#CMR17-65" transform="translate(76.286998 0) scale(0.996264)"/>
      <use xlink:href="#CMR17-6e" transform="translate(116.772659 0) scale(0.996264)"/>
      <use xlink:href="#CMR17-61" transform="translate(167.668028 0) scale(0.996264)"/>
      <use xlink:href="#CMR17-72" transform="translate(213.358505 0) scale(0.996264)"/>
      <use xlink:href="#CMR17-69" transform="translate(248.639273 0) scale(0.996264)"/>
      <use xlink:href="#CMR17-6f" transform="translate(273.510332 0) scale(0.996264)"/>
      <use xlink:href="#CMR17-31" transform="translate(349.276775 0) scale(0.996264)"/>
     </g>
    </g>
    <g id="patch_18">
     <path d="M 249.447141 336.844062 
L 289.447141 336.844062 
L 289.447141 322.844062 
L 249.447141 322.844062 
z
" style="fill: #fa8072; stroke: #ff0000; stroke-width: 2.6; stroke-linejoin: miter"/>
    </g>
    <g id="text_34">
     <!-- scenario 2 -->
     <g transform="translate(305.447141 336.844062) scale(0.2 -0.2)">
      <use xlink:href="#CMR17-73" transform="scale(0.996264)"/>
      <use xlink:href="#CMR17-63" transform="translate(35.801338 0) scale(0.996264)"/>
      <use xlink:href="#CMR17-65" transform="translate(76.286998 0) scale(0.996264)"/>
      <use xlink:href="#CMR17-6e" transform="translate(116.772659 0) scale(0.996264)"/>
      <use xlink:href="#CMR17-61" transform="translate(167.668028 0) scale(0.996264)"/>
      <use xlink:href="#CMR17-72" transform="translate(213.358505 0) scale(0.996264)"/>
      <use xlink:href="#CMR17-69" transform="translate(248.639273 0) scale(0.996264)"/>
      <use xlink:href="#CMR17-6f" transform="translate(273.510332 0) scale(0.996264)"/>
      <use xlink:href="#CMR17-32" transform="translate(349.276775 0) scale(0.996264)"/>
     </g>
    </g>
    <g id="patch_19">
     <path d="M 249.447141 364.719696 
L 289.447141 364.719696 
L 289.447141 350.719696 
L 249.447141 350.719696 
z
" style="fill: #75aff4; stroke: #0000ff; stroke-width: 2; stroke-linejoin: miter"/>
    </g>
    <g id="text_35">
     <!-- scenario 3 -->
     <g transform="translate(305.447141 364.719696) scale(0.2 -0.2)">
      <use xlink:href="#CMR17-73" transform="scale(0.996264)"/>
      <use xlink:href="#CMR17-63" transform="translate(35.801338 0) scale(0.996264)"/>
      <use xlink:href="#CMR17-65" transform="translate(76.286998 0) scale(0.996264)"/>
      <use xlink:href="#CMR17-6e" transform="translate(116.772659 0) scale(0.996264)"/>
      <use xlink:href="#CMR17-61" transform="translate(167.668028 0) scale(0.996264)"/>
      <use xlink:href="#CMR17-72" transform="translate(213.358505 0) scale(0.996264)"/>
      <use xlink:href="#CMR17-69" transform="translate(248.639273 0) scale(0.996264)"/>
      <use xlink:href="#CMR17-6f" transform="translate(273.510332 0) scale(0.996264)"/>
      <use xlink:href="#CMR17-33" transform="translate(349.276775 0) scale(0.996264)"/>
     </g>
    </g>
    <g id="patch_20">
     <path d="M 249.447141 392.59533 
L 289.447141 392.59533 
L 289.447141 378.59533 
L 249.447141 378.59533 
z
" style="fill: #e0ee89; stroke: #c4e302; stroke-width: 2; stroke-linejoin: miter"/>
    </g>
    <g id="text_36">
     <!-- scenario 3.1 -->
     <g transform="translate(305.447141 392.59533) scale(0.2 -0.2)">
      <defs>
       <path id="CMR17-2e" d="M 1062 261 
C 1062 420 934 522 800 522 
C 672 522 538 420 538 261 
C 538 102 666 0 800 0 
C 928 0 1062 102 1062 261 
z
" transform="scale(0.015625)"/>
      </defs>
      <use xlink:href="#CMR17-73" transform="scale(0.996264)"/>
      <use xlink:href="#CMR17-63" transform="translate(35.801338 0) scale(0.996264)"/>
      <use xlink:href="#CMR17-65" transform="translate(76.286998 0) scale(0.996264)"/>
      <use xlink:href="#CMR17-6e" transform="translate(116.772659 0) scale(0.996264)"/>
      <use xlink:href="#CMR17-61" transform="translate(167.668028 0) scale(0.996264)"/>
      <use xlink:href="#CMR17-72" transform="translate(213.358505 0) scale(0.996264)"/>
      <use xlink:href="#CMR17-69" transform="translate(248.639273 0) scale(0.996264)"/>
      <use xlink:href="#CMR17-6f" transform="translate(273.510332 0) scale(0.996264)"/>
      <use xlink:href="#CMR17-33" transform="translate(349.276775 0) scale(0.996264)"/>
      <use xlink:href="#CMR17-2e" transform="translate(394.967252 0) scale(0.996264)"/>
      <use xlink:href="#CMR17-31" transform="translate(419.838311 0) scale(0.996264)"/>
     </g>
    </g>
    <g id="patch_21">
     <path d="M 249.447141 420.470963 
L 289.447141 420.470963 
L 289.447141 406.470963 
L 249.447141 406.470963 
z
" style="fill: #ea83e2; stroke: #f311e2; stroke-width: 2; stroke-linejoin: miter"/>
    </g>
    <g id="text_37">
     <!-- scenario 3.2 -->
     <g transform="translate(305.447141 420.470963) scale(0.2 -0.2)">
      <use xlink:href="#CMR17-73" transform="scale(0.996264)"/>
      <use xlink:href="#CMR17-63" transform="translate(35.801338 0) scale(0.996264)"/>
      <use xlink:href="#CMR17-65" transform="translate(76.286998 0) scale(0.996264)"/>
      <use xlink:href="#CMR17-6e" transform="translate(116.772659 0) scale(0.996264)"/>
      <use xlink:href="#CMR17-61" transform="translate(167.668028 0) scale(0.996264)"/>
      <use xlink:href="#CMR17-72" transform="translate(213.358505 0) scale(0.996264)"/>
      <use xlink:href="#CMR17-69" transform="translate(248.639273 0) scale(0.996264)"/>
      <use xlink:href="#CMR17-6f" transform="translate(273.510332 0) scale(0.996264)"/>
      <use xlink:href="#CMR17-33" transform="translate(349.276775 0) scale(0.996264)"/>
      <use xlink:href="#CMR17-2e" transform="translate(394.967252 0) scale(0.996264)"/>
      <use xlink:href="#CMR17-32" transform="translate(419.838311 0) scale(0.996264)"/>
     </g>
    </g>
   </g>
  </g>
 </g>
 <defs>
  <clipPath id="p6157178475">
   <rect x="74.829989" y="10.8" width="498.340022" height="431.546597"/>
  </clipPath>
 </defs>
</svg>
