<?xml version="1.0" encoding="utf-8" standalone="no"?>
<!DOCTYPE svg PUBLIC "-//W3C//DTD SVG 1.1//EN"
  "http://www.w3.org/Graphics/SVG/1.1/DTD/svg11.dtd">
<svg xmlns:xlink="http://www.w3.org/1999/xlink" width="648pt" height="504pt" viewBox="0 0 648 504" xmlns="http://www.w3.org/2000/svg" version="1.1">
 <metadata>
  <rdf:RDF xmlns:dc="http://purl.org/dc/elements/1.1/" xmlns:cc="http://creativecommons.org/ns#" xmlns:rdf="http://www.w3.org/1999/02/22-rdf-syntax-ns#">
   <cc:Work>
    <dc:type rdf:resource="http://purl.org/dc/dcmitype/StillImage"/>
    <dc:date>2024-07-24T20:26:53.455369</dc:date>
    <dc:format>image/svg+xml</dc:format>
    <dc:creator>
     <cc:Agent>
      <dc:title>Matplotlib v3.8.2, https://matplotlib.org/</dc:title>
     </cc:Agent>
    </dc:creator>
   </cc:Work>
  </rdf:RDF>
 </metadata>
 <defs>
  <style type="text/css">*{stroke-linejoin: round; stroke-linecap: butt}</style>
 </defs>
 <g id="figure_1">
  <g id="patch_1">
   <path d="M 0 504 
L 648 504 
L 648 0 
L 0 0 
z
" style="fill: #ffffff"/>
  </g>
  <g id="axes_1">
   <g id="patch_2">
    <path d="M 63.783553 443.232238 
L 584.216447 443.232238 
L 584.216447 18.410347 
L 63.783553 18.410347 
z
" style="fill: #ffffff"/>
   </g>
   <g id="PolyCollection_1">
    <defs>
     <path id="m85c575c0c4" d="M 88.566072 -117.269428 
L 88.566072 -112.134743 
L 138.131109 -256.742286 
L 187.696147 -346.143712 
L 237.261184 -369.912551 
L 286.826222 -360.354554 
L 336.391259 -341.747203 
L 385.956297 -339.04698 
L 435.521334 -338.734324 
L 435.521334 -347.814316 
L 435.521334 -347.814316 
L 385.956297 -347.029636 
L 336.391259 -353.533887 
L 286.826222 -371.744433 
L 237.261184 -376.111154 
L 187.696147 -352.913572 
L 138.131109 -268.374036 
L 88.566072 -117.269428 
z
" style="stroke: #808080; stroke-opacity: 0.2"/>
    </defs>
    <g clip-path="url(#p34a9045f67)">
     <use xlink:href="#m85c575c0c4" x="0" y="504" style="fill: #808080; fill-opacity: 0.2; stroke: #808080; stroke-opacity: 0.2"/>
    </g>
   </g>
   <g id="PolyCollection_2">
    <defs>
     <path id="mf3cfe8de0f" d="M 88.566072 -119.742505 
L 88.566072 -113.387326 
L 138.131109 -118.140932 
L 187.696147 -110.944043 
L 237.261184 -112.902502 
L 286.826222 -114.697619 
L 336.391259 -109.454835 
L 385.956297 -114.609052 
L 435.521334 -109.268781 
L 435.521334 -113.350545 
L 435.521334 -113.350545 
L 385.956297 -121.0913 
L 336.391259 -114.721756 
L 286.826222 -119.51468 
L 237.261184 -118.714355 
L 187.696147 -115.966413 
L 138.131109 -124.619021 
L 88.566072 -119.742505 
z
" style="stroke: #808080; stroke-opacity: 0.2"/>
    </defs>
    <g clip-path="url(#p34a9045f67)">
     <use xlink:href="#mf3cfe8de0f" x="0" y="504" style="fill: #808080; fill-opacity: 0.2; stroke: #808080; stroke-opacity: 0.2"/>
    </g>
   </g>
   <g id="PolyCollection_3">
    <defs>
     <path id="m96bedc0b08" d="M 88.566072 -112.833517 
L 88.566072 -107.542 
L 138.131109 -300.196804 
L 187.696147 -360.520087 
L 237.261184 -371.73949 
L 286.826222 -361.551761 
L 336.391259 -343.354443 
L 385.956297 -343.722793 
L 435.521334 -344.851336 
L 435.521334 -353.497911 
L 435.521334 -353.497911 
L 385.956297 -351.086273 
L 336.391259 -353.342719 
L 286.826222 -372.199311 
L 237.261184 -378.532434 
L 187.696147 -367.330681 
L 138.131109 -311.53598 
L 88.566072 -112.833517 
z
" style="stroke: #808080; stroke-opacity: 0.2"/>
    </defs>
    <g clip-path="url(#p34a9045f67)">
     <use xlink:href="#m96bedc0b08" x="0" y="504" style="fill: #808080; fill-opacity: 0.2; stroke: #808080; stroke-opacity: 0.2"/>
    </g>
   </g>
   <g id="matplotlib.axis_1">
    <g id="xtick_1">
     <g id="line2d_1">
      <path d="M 88.566072 443.232238 
L 88.566072 18.410347 
" clip-path="url(#p34a9045f67)" style="fill: none; stroke: #b0b0b0; stroke-width: 0.8; stroke-linecap: square"/>
     </g>
     <g id="line2d_2">
      <defs>
       <path id="m1ead850938" d="M 0 0 
L 0 3.5 
" style="stroke: #000000; stroke-width: 0.8"/>
      </defs>
      <g>
       <use xlink:href="#m1ead850938" x="88.566072" y="443.232238" style="stroke: #000000; stroke-width: 0.8"/>
      </g>
     </g>
     <g id="text_1">
      <!-- 0.0 -->
      <g transform="translate(75.778355 465.452931) scale(0.22 -0.22)">
       <defs>
        <path id="CMR17-30" d="M 2688 2025 
C 2688 2416 2682 3080 2413 3591 
C 2176 4039 1798 4198 1466 4198 
C 1158 4198 768 4058 525 3597 
C 269 3118 243 2524 243 2025 
C 243 1661 250 1106 448 619 
C 723 -39 1216 -128 1466 -128 
C 1760 -128 2208 -7 2470 600 
C 2662 1042 2688 1559 2688 2025 
z
M 1466 -26 
C 1056 -26 813 325 723 812 
C 653 1188 653 1738 653 2096 
C 653 2588 653 2997 736 3387 
C 858 3929 1216 4096 1466 4096 
C 1728 4096 2067 3923 2189 3400 
C 2272 3036 2278 2607 2278 2096 
C 2278 1680 2278 1169 2202 792 
C 2067 95 1690 -26 1466 -26 
z
" transform="scale(0.015625)"/>
        <path id="CMR17-2e" d="M 1062 261 
C 1062 420 934 522 800 522 
C 672 522 538 420 538 261 
C 538 102 666 0 800 0 
C 928 0 1062 102 1062 261 
z
" transform="scale(0.015625)"/>
       </defs>
       <use xlink:href="#CMR17-30" transform="scale(0.996264)"/>
       <use xlink:href="#CMR17-2e" transform="translate(45.690477 0) scale(0.996264)"/>
       <use xlink:href="#CMR17-30" transform="translate(70.561536 0) scale(0.996264)"/>
      </g>
     </g>
    </g>
    <g id="xtick_2">
     <g id="line2d_3">
      <path d="M 138.131109 443.232238 
L 138.131109 18.410347 
" clip-path="url(#p34a9045f67)" style="fill: none; stroke: #b0b0b0; stroke-width: 0.8; stroke-linecap: square"/>
     </g>
     <g id="line2d_4">
      <g>
       <use xlink:href="#m1ead850938" x="138.131109" y="443.232238" style="stroke: #000000; stroke-width: 0.8"/>
      </g>
     </g>
     <g id="text_2">
      <!-- 1.5 -->
      <g transform="translate(125.343393 465.452931) scale(0.22 -0.22)">
       <defs>
        <path id="CMR17-31" d="M 1702 4058 
C 1702 4192 1696 4192 1606 4192 
C 1357 3916 979 3827 621 3827 
C 602 3827 570 3827 563 3808 
C 557 3795 557 3782 557 3648 
C 755 3648 1088 3686 1344 3839 
L 1344 461 
C 1344 236 1331 160 781 160 
L 589 160 
L 589 0 
C 896 0 1216 0 1523 0 
C 1830 0 2150 0 2458 0 
L 2458 160 
L 2266 160 
C 1715 160 1702 230 1702 458 
L 1702 4058 
z
" transform="scale(0.015625)"/>
        <path id="CMR17-35" d="M 730 3692 
C 794 3666 1056 3584 1325 3584 
C 1920 3584 2246 3911 2432 4100 
C 2432 4157 2432 4192 2394 4192 
C 2387 4192 2374 4192 2323 4163 
C 2099 4058 1837 3973 1517 3973 
C 1325 3973 1037 3999 723 4139 
C 653 4171 640 4171 634 4171 
C 602 4171 595 4164 595 4037 
L 595 2203 
C 595 2089 595 2057 659 2057 
C 691 2057 704 2070 736 2114 
C 941 2401 1222 2522 1542 2522 
C 1766 2522 2246 2382 2246 1289 
C 2246 1085 2246 715 2054 421 
C 1894 159 1645 25 1370 25 
C 947 25 518 320 403 814 
C 429 807 480 795 506 795 
C 589 795 749 840 749 1038 
C 749 1210 627 1280 506 1280 
C 358 1280 262 1190 262 1011 
C 262 454 704 -128 1382 -128 
C 2042 -128 2669 440 2669 1264 
C 2669 2030 2170 2624 1549 2624 
C 1222 2624 947 2503 730 2274 
L 730 3692 
z
" transform="scale(0.015625)"/>
       </defs>
       <use xlink:href="#CMR17-31" transform="scale(0.996264)"/>
       <use xlink:href="#CMR17-2e" transform="translate(45.690477 0) scale(0.996264)"/>
       <use xlink:href="#CMR17-35" transform="translate(70.561536 0) scale(0.996264)"/>
      </g>
     </g>
    </g>
    <g id="xtick_3">
     <g id="line2d_5">
      <path d="M 187.696147 443.232238 
L 187.696147 18.410347 
" clip-path="url(#p34a9045f67)" style="fill: none; stroke: #b0b0b0; stroke-width: 0.8; stroke-linecap: square"/>
     </g>
     <g id="line2d_6">
      <g>
       <use xlink:href="#m1ead850938" x="187.696147" y="443.232238" style="stroke: #000000; stroke-width: 0.8"/>
      </g>
     </g>
     <g id="text_3">
      <!-- 3.0 -->
      <g transform="translate(174.90843 465.452931) scale(0.22 -0.22)">
       <defs>
        <path id="CMR17-33" d="M 1414 2157 
C 1984 2157 2234 1662 2234 1090 
C 2234 320 1824 25 1453 25 
C 1114 25 563 194 390 693 
C 422 680 454 680 486 680 
C 640 680 755 782 755 948 
C 755 1133 614 1216 486 1216 
C 378 1216 211 1165 211 926 
C 211 335 787 -128 1466 -128 
C 2176 -128 2720 430 2720 1085 
C 2720 1707 2208 2157 1600 2227 
C 2086 2328 2554 2756 2554 3329 
C 2554 3820 2048 4179 1472 4179 
C 890 4179 378 3829 378 3329 
C 378 3110 544 3072 627 3072 
C 762 3072 877 3155 877 3321 
C 877 3486 762 3569 627 3569 
C 602 3569 570 3569 544 3557 
C 730 3959 1235 4032 1459 4032 
C 1683 4032 2106 3925 2106 3320 
C 2106 3143 2080 2828 1862 2550 
C 1670 2304 1453 2304 1242 2284 
C 1210 2284 1062 2269 1037 2269 
C 992 2263 966 2257 966 2208 
C 966 2163 973 2157 1101 2157 
L 1414 2157 
z
" transform="scale(0.015625)"/>
       </defs>
       <use xlink:href="#CMR17-33" transform="scale(0.996264)"/>
       <use xlink:href="#CMR17-2e" transform="translate(45.690477 0) scale(0.996264)"/>
       <use xlink:href="#CMR17-30" transform="translate(70.561536 0) scale(0.996264)"/>
      </g>
     </g>
    </g>
    <g id="xtick_4">
     <g id="line2d_7">
      <path d="M 237.261184 443.232238 
L 237.261184 18.410347 
" clip-path="url(#p34a9045f67)" style="fill: none; stroke: #b0b0b0; stroke-width: 0.8; stroke-linecap: square"/>
     </g>
     <g id="line2d_8">
      <g>
       <use xlink:href="#m1ead850938" x="237.261184" y="443.232238" style="stroke: #000000; stroke-width: 0.8"/>
      </g>
     </g>
     <g id="text_4">
      <!-- 4.5 -->
      <g transform="translate(224.473468 465.452931) scale(0.22 -0.22)">
       <defs>
        <path id="CMR17-34" d="M 2150 4122 
C 2150 4256 2144 4256 2029 4256 
L 128 1254 
L 128 1088 
L 1779 1088 
L 1779 457 
C 1779 224 1766 160 1318 160 
L 1197 160 
L 1197 0 
C 1402 0 1747 0 1965 0 
C 2182 0 2528 0 2733 0 
L 2733 160 
L 2611 160 
C 2163 160 2150 224 2150 457 
L 2150 1088 
L 2803 1088 
L 2803 1254 
L 2150 1254 
L 2150 4122 
z
M 1798 3703 
L 1798 1254 
L 256 1254 
L 1798 3703 
z
" transform="scale(0.015625)"/>
       </defs>
       <use xlink:href="#CMR17-34" transform="scale(0.996264)"/>
       <use xlink:href="#CMR17-2e" transform="translate(45.690477 0) scale(0.996264)"/>
       <use xlink:href="#CMR17-35" transform="translate(70.561536 0) scale(0.996264)"/>
      </g>
     </g>
    </g>
    <g id="xtick_5">
     <g id="line2d_9">
      <path d="M 286.826222 443.232238 
L 286.826222 18.410347 
" clip-path="url(#p34a9045f67)" style="fill: none; stroke: #b0b0b0; stroke-width: 0.8; stroke-linecap: square"/>
     </g>
     <g id="line2d_10">
      <g>
       <use xlink:href="#m1ead850938" x="286.826222" y="443.232238" style="stroke: #000000; stroke-width: 0.8"/>
      </g>
     </g>
     <g id="text_5">
      <!-- 6.0 -->
      <g transform="translate(274.038505 465.452931) scale(0.22 -0.22)">
       <defs>
        <path id="CMR17-36" d="M 678 2176 
C 678 3690 1395 4032 1811 4032 
C 1946 4032 2272 4009 2400 3776 
C 2298 3776 2106 3776 2106 3553 
C 2106 3381 2246 3323 2336 3323 
C 2394 3323 2566 3348 2566 3560 
C 2566 3954 2246 4179 1805 4179 
C 1043 4179 243 3390 243 1984 
C 243 253 966 -128 1478 -128 
C 2099 -128 2688 427 2688 1283 
C 2688 2081 2170 2662 1517 2662 
C 1126 2662 838 2407 678 1960 
L 678 2176 
z
M 1478 25 
C 691 25 691 1200 691 1436 
C 691 1896 909 2560 1504 2560 
C 1613 2560 1926 2560 2138 2120 
C 2253 1870 2253 1609 2253 1289 
C 2253 944 2253 690 2118 434 
C 1978 171 1773 25 1478 25 
z
" transform="scale(0.015625)"/>
       </defs>
       <use xlink:href="#CMR17-36" transform="scale(0.996264)"/>
       <use xlink:href="#CMR17-2e" transform="translate(45.690477 0) scale(0.996264)"/>
       <use xlink:href="#CMR17-30" transform="translate(70.561536 0) scale(0.996264)"/>
      </g>
     </g>
    </g>
    <g id="xtick_6">
     <g id="line2d_11">
      <path d="M 336.391259 443.232238 
L 336.391259 18.410347 
" clip-path="url(#p34a9045f67)" style="fill: none; stroke: #b0b0b0; stroke-width: 0.8; stroke-linecap: square"/>
     </g>
     <g id="line2d_12">
      <g>
       <use xlink:href="#m1ead850938" x="336.391259" y="443.232238" style="stroke: #000000; stroke-width: 0.8"/>
      </g>
     </g>
     <g id="text_6">
      <!-- 7.5 -->
      <g transform="translate(323.603543 465.452931) scale(0.22 -0.22)">
       <defs>
        <path id="CMR17-37" d="M 2886 3941 
L 2886 4081 
L 1382 4081 
C 634 4081 621 4165 595 4288 
L 480 4288 
L 294 3094 
L 410 3094 
C 429 3215 474 3540 550 3661 
C 589 3712 1062 3712 1171 3712 
L 2579 3712 
L 1869 2661 
C 1395 1954 1069 999 1069 165 
C 1069 89 1069 -128 1299 -128 
C 1530 -128 1530 89 1530 171 
L 1530 465 
C 1530 1508 1709 2196 2003 2636 
L 2886 3941 
z
" transform="scale(0.015625)"/>
       </defs>
       <use xlink:href="#CMR17-37" transform="scale(0.996264)"/>
       <use xlink:href="#CMR17-2e" transform="translate(45.690477 0) scale(0.996264)"/>
       <use xlink:href="#CMR17-35" transform="translate(70.561536 0) scale(0.996264)"/>
      </g>
     </g>
    </g>
    <g id="xtick_7">
     <g id="line2d_13">
      <path d="M 385.956297 443.232238 
L 385.956297 18.410347 
" clip-path="url(#p34a9045f67)" style="fill: none; stroke: #b0b0b0; stroke-width: 0.8; stroke-linecap: square"/>
     </g>
     <g id="line2d_14">
      <g>
       <use xlink:href="#m1ead850938" x="385.956297" y="443.232238" style="stroke: #000000; stroke-width: 0.8"/>
      </g>
     </g>
     <g id="text_7">
      <!-- 9.0 -->
      <g transform="translate(373.16858 465.452931) scale(0.22 -0.22)">
       <defs>
        <path id="CMR17-39" d="M 2253 1864 
C 2253 464 1670 31 1190 31 
C 1043 31 685 31 538 294 
C 704 268 826 357 826 518 
C 826 692 685 749 595 749 
C 538 749 365 723 365 506 
C 365 71 742 -128 1203 -128 
C 1939 -128 2688 674 2688 2073 
C 2688 3817 1971 4179 1485 4179 
C 851 4179 243 3628 243 2778 
C 243 1991 762 1408 1414 1408 
C 1952 1408 2189 1903 2253 2112 
L 2253 1864 
z
M 1427 1510 
C 1254 1510 1011 1542 813 1922 
C 678 2169 678 2461 678 2771 
C 678 3146 678 3405 858 3684 
C 947 3817 1114 4032 1485 4032 
C 2240 4032 2240 2885 2240 2632 
C 2240 2182 2035 1510 1427 1510 
z
" transform="scale(0.015625)"/>
       </defs>
       <use xlink:href="#CMR17-39" transform="scale(0.996264)"/>
       <use xlink:href="#CMR17-2e" transform="translate(45.690477 0) scale(0.996264)"/>
       <use xlink:href="#CMR17-30" transform="translate(70.561536 0) scale(0.996264)"/>
      </g>
     </g>
    </g>
    <g id="xtick_8">
     <g id="line2d_15">
      <path d="M 435.521334 443.232238 
L 435.521334 18.410347 
" clip-path="url(#p34a9045f67)" style="fill: none; stroke: #b0b0b0; stroke-width: 0.8; stroke-linecap: square"/>
     </g>
     <g id="line2d_16">
      <g>
       <use xlink:href="#m1ead850938" x="435.521334" y="443.232238" style="stroke: #000000; stroke-width: 0.8"/>
      </g>
     </g>
     <g id="text_8">
      <!-- 10.5 -->
      <g transform="translate(417.707665 465.452931) scale(0.22 -0.22)">
       <use xlink:href="#CMR17-31" transform="scale(0.996264)"/>
       <use xlink:href="#CMR17-30" transform="translate(45.690477 0) scale(0.996264)"/>
       <use xlink:href="#CMR17-2e" transform="translate(91.380954 0) scale(0.996264)"/>
       <use xlink:href="#CMR17-35" transform="translate(116.252013 0) scale(0.996264)"/>
      </g>
     </g>
    </g>
    <g id="text_9">
     <!--  Training examples in thousand  -->
     <g transform="translate(188.438463 488.936812) scale(0.22 -0.22)">
      <defs>
       <path id="CMR17-54" d="M 3981 4326 
L 288 4326 
L 179 2918 
L 294 2918 
C 378 3976 467 4160 1453 4160 
C 1568 4160 1754 4160 1805 4154 
C 1926 4135 1926 4058 1926 3912 
L 1926 459 
C 1926 230 1907 160 1376 160 
L 1197 160 
L 1197 0 
C 1504 0 1824 0 2138 0 
C 2451 0 2771 0 3078 0 
L 3078 160 
L 2899 160 
C 2368 160 2349 230 2349 459 
L 2349 3912 
C 2349 4052 2349 4129 2464 4154 
C 2515 4160 2701 4160 2816 4160 
C 3795 4160 3891 3976 3974 2918 
L 4090 2918 
L 3981 4326 
z
" transform="scale(0.015625)"/>
       <path id="CMR17-72" d="M 960 1497 
C 960 2112 1222 2688 1702 2688 
C 1747 2688 1792 2682 1837 2662 
C 1837 2662 1696 2617 1696 2452 
C 1696 2298 1818 2234 1914 2234 
C 1990 2234 2131 2279 2131 2458 
C 2131 2663 1926 2790 1709 2790 
C 1222 2790 1011 2317 947 2093 
L 941 2093 
L 941 2790 
L 198 2720 
L 198 2554 
C 576 2554 634 2515 634 2208 
L 634 428 
C 634 184 608 153 198 153 
L 198 -13 
C 352 0 646 0 813 0 
C 998 0 1325 0 1498 -13 
L 1498 153 
C 1037 153 960 153 960 440 
L 960 1497 
z
" transform="scale(0.015625)"/>
       <path id="CMR17-61" d="M 2304 1653 
C 2304 2072 2304 2294 2035 2543 
C 1798 2752 1523 2816 1306 2816 
C 800 2816 435 2407 435 1971 
C 435 1728 627 1728 666 1728 
C 749 1728 896 1778 896 1954 
C 896 2112 774 2181 666 2181 
C 640 2181 608 2174 589 2168 
C 723 2592 1069 2714 1293 2714 
C 1613 2714 1965 2429 1965 1885 
L 1965 1600 
C 1587 1600 1133 1549 774 1357 
C 371 1133 256 813 256 570 
C 256 77 832 -64 1171 -64 
C 1523 -64 1850 139 1990 511 
C 2003 233 2182 -18 2464 -18 
C 2598 -18 2938 70 2938 567 
L 2938 920 
L 2822 920 
L 2822 562 
C 2822 178 2650 128 2566 128 
C 2304 128 2304 458 2304 738 
L 2304 1653 
z
M 1965 870 
C 1965 317 1568 38 1216 38 
C 896 38 646 275 646 570 
C 646 761 730 1100 1101 1305 
C 1408 1478 1760 1504 1965 1504 
L 1965 870 
z
" transform="scale(0.015625)"/>
       <path id="CMR17-69" d="M 992 3909 
C 992 4049 877 4170 730 4170 
C 589 4170 467 4056 467 3909 
C 467 3769 582 3648 730 3648 
C 870 3648 992 3763 992 3909 
z
M 243 2706 
L 243 2541 
C 602 2541 653 2502 653 2197 
L 653 427 
C 653 184 627 153 218 153 
L 218 -13 
C 371 0 646 0 806 0 
C 960 0 1222 0 1370 -13 
L 1370 153 
C 992 153 979 191 979 420 
L 979 2776 
L 243 2706 
z
" transform="scale(0.015625)"/>
       <path id="CMR17-6e" d="M 2656 1933 
C 2656 2259 2592 2790 1837 2790 
C 1331 2790 1069 2400 973 2144 
L 966 2144 
L 966 2790 
L 211 2720 
L 211 2554 
C 589 2554 646 2515 646 2208 
L 646 428 
C 646 184 621 153 211 153 
L 211 -13 
C 365 0 646 0 813 0 
C 979 0 1267 0 1421 -13 
L 1421 153 
C 1011 153 986 178 986 428 
L 986 1658 
C 986 2247 1344 2688 1792 2688 
C 2266 2688 2317 2266 2317 1958 
L 2317 428 
C 2317 184 2291 153 1882 153 
L 1882 -13 
C 2035 0 2317 0 2483 0 
C 2650 0 2938 0 3091 -13 
L 3091 153 
C 2682 153 2656 178 2656 428 
L 2656 1933 
z
" transform="scale(0.015625)"/>
       <path id="CMR17-67" d="M 710 1164 
C 832 1068 1043 960 1299 960 
C 1805 960 2240 1357 2240 1888 
C 2240 2054 2189 2310 1997 2509 
C 2176 2692 2438 2752 2586 2752 
C 2611 2752 2650 2752 2682 2734 
C 2656 2728 2598 2703 2598 2605 
C 2598 2527 2656 2471 2739 2471 
C 2835 2471 2886 2533 2886 2614 
C 2886 2731 2790 2854 2586 2854 
C 2330 2854 2106 2738 1926 2580 
C 1734 2753 1504 2816 1299 2816 
C 794 2816 358 2419 358 1888 
C 358 1522 570 1292 634 1228 
C 442 1004 442 743 442 711 
C 442 545 506 302 723 168 
C 390 85 128 -169 128 -486 
C 128 -943 736 -1280 1466 -1280 
C 2170 -1280 2803 -956 2803 -479 
C 2803 384 1856 384 1363 384 
C 1216 384 954 384 922 391 
C 723 423 589 602 589 826 
C 589 883 589 1024 710 1164 
z
M 1299 1068 
C 736 1068 736 1760 736 1889 
C 736 2016 736 2708 1299 2708 
C 1862 2708 1862 2016 1862 1889 
C 1862 1760 1862 1068 1299 1068 
z
M 1466 -1171 
C 826 -1171 384 -835 384 -486 
C 384 -289 493 -105 634 -4 
C 794 104 858 104 1293 104 
C 1818 104 2547 104 2547 -486 
C 2547 -835 2106 -1171 1466 -1171 
z
" transform="scale(0.015625)"/>
       <path id="CMR17-65" d="M 2438 1472 
C 2464 1498 2464 1511 2464 1576 
C 2464 2238 2118 2816 1389 2816 
C 710 2816 173 2169 173 1383 
C 173 551 781 -64 1459 -64 
C 2176 -64 2458 607 2458 740 
C 2458 784 2419 784 2406 784 
C 2362 784 2355 771 2330 696 
C 2189 265 1837 51 1504 51 
C 1229 51 954 203 781 480 
C 582 803 582 1176 582 1472 
L 2438 1472 
z
M 589 1568 
C 634 2505 1126 2714 1382 2714 
C 1818 2714 2112 2297 2118 1568 
L 589 1568 
z
" transform="scale(0.015625)"/>
       <path id="CMR17-78" d="M 1664 1477 
C 1856 1726 2074 2006 2253 2216 
C 2464 2458 2707 2560 2989 2560 
L 2989 2726 
C 2880 2726 2656 2726 2541 2726 
C 2368 2726 2170 2726 2022 2732 
L 2022 2566 
C 2112 2553 2163 2489 2163 2400 
C 2163 2285 2099 2215 2067 2171 
L 1594 1573 
L 1030 2306 
C 973 2376 973 2388 973 2420 
C 973 2497 1037 2560 1146 2560 
L 1146 2732 
C 992 2726 717 2726 557 2726 
C 384 2726 179 2726 38 2732 
L 38 2560 
C 384 2560 461 2534 614 2343 
L 1350 1395 
C 1363 1382 1395 1344 1395 1325 
C 1395 1299 838 619 768 530 
C 480 185 179 160 6 160 
L 6 0 
C 115 0 339 0 454 0 
C 582 0 864 0 979 -6 
L 979 160 
C 941 166 838 179 838 325 
C 838 440 890 510 947 586 
L 1478 1236 
L 2035 512 
C 2086 442 2163 346 2163 301 
C 2163 211 2086 160 1984 160 
L 1984 -6 
C 2138 0 2413 0 2573 0 
C 2746 0 2950 0 3091 -6 
L 3091 160 
C 2771 160 2675 172 2522 370 
L 1664 1477 
z
" transform="scale(0.015625)"/>
       <path id="CMR17-6d" d="M 4326 1933 
C 4326 2252 4269 2790 3507 2790 
C 3072 2790 2771 2496 2656 2151 
L 2650 2151 
C 2573 2676 2195 2790 1837 2790 
C 1331 2790 1069 2400 973 2144 
L 966 2144 
L 966 2790 
L 211 2720 
L 211 2554 
C 589 2554 646 2515 646 2208 
L 646 428 
C 646 184 621 153 211 153 
L 211 -13 
C 365 0 646 0 813 0 
C 979 0 1267 0 1421 -13 
L 1421 153 
C 1011 153 986 178 986 428 
L 986 1658 
C 986 2247 1344 2688 1792 2688 
C 2266 2688 2317 2266 2317 1958 
L 2317 428 
C 2317 184 2291 153 1882 153 
L 1882 -13 
C 2035 0 2317 0 2483 0 
C 2650 0 2938 0 3091 -13 
L 3091 153 
C 2682 153 2656 178 2656 428 
L 2656 1658 
C 2656 2247 3014 2688 3462 2688 
C 3936 2688 3987 2266 3987 1958 
L 3987 428 
C 3987 184 3962 153 3552 153 
L 3552 -13 
C 3706 0 3987 0 4154 0 
C 4320 0 4608 0 4762 -13 
L 4762 153 
C 4352 153 4326 178 4326 428 
L 4326 1933 
z
" transform="scale(0.015625)"/>
       <path id="CMR17-70" d="M 1408 -1063 
C 998 -1063 973 -1037 973 -789 
L 973 402 
C 1158 134 1427 -38 1766 -38 
C 2406 -38 3053 523 3053 1388 
C 3053 2191 2496 2802 1837 2802 
C 1453 2802 1139 2592 960 2338 
L 960 2802 
L 198 2732 
L 198 2567 
C 576 2567 634 2528 634 2223 
L 634 -789 
C 634 -1031 608 -1063 198 -1063 
L 198 -1228 
C 352 -1216 634 -1216 800 -1216 
C 966 -1216 1254 -1216 1408 -1228 
L 1408 -1063 
z
M 973 2012 
C 973 2102 973 2235 1222 2471 
C 1254 2497 1472 2688 1792 2688 
C 2259 2688 2643 2108 2643 1382 
C 2643 656 2234 64 1728 64 
C 1498 64 1248 172 1056 472 
C 973 612 973 650 973 752 
L 973 2012 
z
" transform="scale(0.015625)"/>
       <path id="CMR17-6c" d="M 979 4396 
L 218 4326 
L 218 4160 
C 595 4160 653 4122 653 3817 
L 653 426 
C 653 184 627 153 218 153 
L 218 -13 
C 371 0 653 0 813 0 
C 979 0 1261 0 1414 -13 
L 1414 153 
C 1005 153 979 178 979 426 
L 979 4396 
z
" transform="scale(0.015625)"/>
       <path id="CMR17-73" d="M 1978 2697 
C 1978 2813 1971 2819 1933 2819 
C 1907 2819 1901 2813 1824 2717 
C 1805 2691 1747 2626 1728 2601 
C 1523 2819 1235 2819 1126 2819 
C 416 2819 160 2447 160 2076 
C 160 1498 813 1365 998 1325 
C 1402 1243 1542 1217 1677 1101 
C 1760 1025 1901 884 1901 654 
C 1901 384 1747 38 1158 38 
C 602 38 403 460 288 1021 
C 269 1110 269 1117 218 1117 
C 166 1117 160 1110 160 983 
L 160 63 
C 160 -51 166 -58 205 -58 
C 237 -58 243 -51 275 0 
C 314 57 410 211 448 276 
C 576 103 800 -64 1158 -64 
C 1792 -64 2131 283 2131 784 
C 2131 1112 1958 1285 1875 1362 
C 1683 1561 1459 1606 1190 1657 
C 838 1735 390 1825 390 2217 
C 390 2383 480 2737 1126 2737 
C 1811 2737 1850 2094 1862 1888 
C 1869 1856 1901 1849 1920 1849 
C 1978 1849 1978 1869 1978 1978 
L 1978 2697 
z
" transform="scale(0.015625)"/>
       <path id="CMR17-74" d="M 966 2560 
L 1862 2560 
L 1862 2725 
L 966 2725 
L 966 3904 
L 851 3904 
C 838 3245 614 2668 70 2668 
L 70 2560 
L 627 2560 
L 627 771 
C 627 650 627 -64 1370 -64 
C 1747 -64 1965 306 1965 777 
L 1965 1140 
L 1850 1140 
L 1850 783 
C 1850 344 1677 51 1408 51 
C 1222 51 966 178 966 758 
L 966 2560 
z
" transform="scale(0.015625)"/>
       <path id="CMR17-68" d="M 2656 1933 
C 2656 2259 2592 2790 1837 2790 
C 1312 2790 1056 2368 979 2157 
L 973 2157 
L 973 4396 
L 211 4326 
L 211 4160 
C 589 4160 646 4122 646 3817 
L 646 426 
C 646 184 621 153 211 153 
L 211 -13 
C 365 0 646 0 813 0 
C 979 0 1267 0 1421 -13 
L 1421 153 
C 1011 153 986 178 986 428 
L 986 1658 
C 986 2247 1344 2688 1792 2688 
C 2266 2688 2317 2266 2317 1958 
L 2317 428 
C 2317 184 2291 153 1882 153 
L 1882 -13 
C 2035 0 2317 0 2483 0 
C 2650 0 2938 0 3091 -13 
L 3091 153 
C 2682 153 2656 178 2656 428 
L 2656 1933 
z
" transform="scale(0.015625)"/>
       <path id="CMR17-6f" d="M 2758 1356 
C 2758 2176 2163 2816 1466 2816 
C 768 2816 173 2176 173 1356 
C 173 551 768 -64 1466 -64 
C 2163 -64 2758 551 2758 1356 
z
M 1466 51 
C 1165 51 909 230 762 480 
C 602 767 582 1126 582 1408 
C 582 1677 595 2010 762 2298 
C 890 2509 1139 2714 1466 2714 
C 1754 2714 1997 2554 2150 2330 
C 2349 2029 2349 1607 2349 1408 
C 2349 1158 2336 775 2163 467 
C 1984 173 1709 51 1466 51 
z
" transform="scale(0.015625)"/>
       <path id="CMR17-75" d="M 1882 2693 
L 1882 2528 
C 2259 2528 2317 2489 2317 2186 
L 2317 1032 
C 2317 500 2029 38 1555 38 
C 1030 38 986 348 986 678 
L 986 2763 
L 211 2693 
L 211 2528 
C 467 2528 640 2528 646 2274 
L 646 1058 
C 646 633 646 361 813 183 
C 896 101 1056 -64 1517 -64 
C 2061 -64 2272 377 2323 506 
L 2330 506 
L 2330 -63 
L 3091 -63 
L 3091 128 
C 2714 128 2656 166 2656 473 
L 2656 2763 
L 1882 2693 
z
" transform="scale(0.015625)"/>
       <path id="CMR17-64" d="M 1869 4326 
L 1869 4160 
C 2246 4160 2304 4122 2304 3820 
L 2304 2345 
C 2278 2377 2016 2790 1498 2790 
C 845 2790 211 2208 211 1364 
C 211 525 806 -64 1434 -64 
C 1978 -64 2259 337 2291 380 
L 2291 -63 
L 3066 -63 
L 3066 128 
C 2688 128 2630 166 2630 473 
L 2630 4396 
L 1869 4326 
z
M 2291 755 
C 2291 563 2176 390 2029 262 
C 1811 70 1594 38 1472 38 
C 1286 38 621 134 621 1356 
C 621 2612 1363 2688 1530 2688 
C 1824 2688 2061 2522 2208 2291 
C 2291 2157 2291 2138 2291 2023 
L 2291 755 
z
" transform="scale(0.015625)"/>
      </defs>
      <use xlink:href="#CMR17-54" transform="scale(0.996264)"/>
      <use xlink:href="#CMR17-72" transform="translate(58.702625 0) scale(0.996264)"/>
      <use xlink:href="#CMR17-61" transform="translate(93.983393 0) scale(0.996264)"/>
      <use xlink:href="#CMR17-69" transform="translate(139.67387 0) scale(0.996264)"/>
      <use xlink:href="#CMR17-6e" transform="translate(164.544929 0) scale(0.996264)"/>
      <use xlink:href="#CMR17-69" transform="translate(215.440298 0) scale(0.996264)"/>
      <use xlink:href="#CMR17-6e" transform="translate(240.311357 0) scale(0.996264)"/>
      <use xlink:href="#CMR17-67" transform="translate(291.206727 0) scale(0.996264)"/>
      <use xlink:href="#CMR17-65" transform="translate(366.97317 0) scale(0.996264)"/>
      <use xlink:href="#CMR17-78" transform="translate(407.458831 0) scale(0.996264)"/>
      <use xlink:href="#CMR17-61" transform="translate(455.751746 0) scale(0.996264)"/>
      <use xlink:href="#CMR17-6d" transform="translate(501.442223 0) scale(0.996264)"/>
      <use xlink:href="#CMR17-70" transform="translate(578.361813 0) scale(0.996264)"/>
      <use xlink:href="#CMR17-6c" transform="translate(629.257183 0) scale(0.996264)"/>
      <use xlink:href="#CMR17-65" transform="translate(654.128242 0) scale(0.996264)"/>
      <use xlink:href="#CMR17-73" transform="translate(694.613902 0) scale(0.996264)"/>
      <use xlink:href="#CMR17-69" transform="translate(760.491206 0) scale(0.996264)"/>
      <use xlink:href="#CMR17-6e" transform="translate(785.362265 0) scale(0.996264)"/>
      <use xlink:href="#CMR17-74" transform="translate(866.333601 0) scale(0.996264)"/>
      <use xlink:href="#CMR17-68" transform="translate(901.614368 0) scale(0.996264)"/>
      <use xlink:href="#CMR17-6f" transform="translate(952.509738 0) scale(0.996264)"/>
      <use xlink:href="#CMR17-75" transform="translate(998.200215 0) scale(0.996264)"/>
      <use xlink:href="#CMR17-73" transform="translate(1049.095585 0) scale(0.996264)"/>
      <use xlink:href="#CMR17-61" transform="translate(1084.896923 0) scale(0.996264)"/>
      <use xlink:href="#CMR17-6e" transform="translate(1130.5874 0) scale(0.996264)"/>
      <use xlink:href="#CMR17-64" transform="translate(1181.48277 0) scale(0.996264)"/>
     </g>
    </g>
   </g>
   <g id="matplotlib.axis_2">
    <g id="ytick_1">
     <g id="line2d_17">
      <path d="M 63.783553 443.232238 
L 584.216447 443.232238 
" clip-path="url(#p34a9045f67)" style="fill: none; stroke: #b0b0b0; stroke-width: 0.8; stroke-linecap: square"/>
     </g>
     <g id="line2d_18">
      <defs>
       <path id="m24bc66ce8e" d="M 0 0 
L -3.5 0 
" style="stroke: #000000; stroke-width: 0.8"/>
      </defs>
      <g>
       <use xlink:href="#m24bc66ce8e" x="63.783553" y="443.232238" style="stroke: #000000; stroke-width: 0.8"/>
      </g>
     </g>
     <g id="text_10">
      <!-- 0 -->
      <g transform="translate(46.731648 450.842584) scale(0.22 -0.22)">
       <use xlink:href="#CMR17-30" transform="scale(0.996264)"/>
      </g>
     </g>
    </g>
    <g id="ytick_2">
     <g id="line2d_19">
      <path d="M 63.783553 390.129501 
L 584.216447 390.129501 
" clip-path="url(#p34a9045f67)" style="fill: none; stroke: #b0b0b0; stroke-width: 0.8; stroke-linecap: square"/>
     </g>
     <g id="line2d_20">
      <g>
       <use xlink:href="#m24bc66ce8e" x="63.783553" y="390.129501" style="stroke: #000000; stroke-width: 0.8"/>
      </g>
     </g>
     <g id="text_11">
      <!-- 10 -->
      <g transform="translate(36.679743 397.739848) scale(0.22 -0.22)">
       <use xlink:href="#CMR17-31" transform="scale(0.996264)"/>
       <use xlink:href="#CMR17-30" transform="translate(45.690477 0) scale(0.996264)"/>
      </g>
     </g>
    </g>
    <g id="ytick_3">
     <g id="line2d_21">
      <path d="M 63.783553 337.026765 
L 584.216447 337.026765 
" clip-path="url(#p34a9045f67)" style="fill: none; stroke: #b0b0b0; stroke-width: 0.8; stroke-linecap: square"/>
     </g>
     <g id="line2d_22">
      <g>
       <use xlink:href="#m24bc66ce8e" x="63.783553" y="337.026765" style="stroke: #000000; stroke-width: 0.8"/>
      </g>
     </g>
     <g id="text_12">
      <!-- 20 -->
      <g transform="translate(36.679743 344.637112) scale(0.22 -0.22)">
       <defs>
        <path id="CMR17-32" d="M 2669 989 
L 2554 989 
C 2490 536 2438 459 2413 420 
C 2381 369 1920 369 1830 369 
L 602 369 
C 832 619 1280 1072 1824 1597 
C 2214 1967 2669 2402 2669 3035 
C 2669 3790 2067 4224 1395 4224 
C 691 4224 262 3604 262 3030 
C 262 2780 448 2748 525 2748 
C 589 2748 781 2787 781 3010 
C 781 3207 614 3264 525 3264 
C 486 3264 448 3258 422 3245 
C 544 3790 915 4058 1306 4058 
C 1862 4058 2227 3617 2227 3035 
C 2227 2479 1901 2000 1536 1584 
L 262 146 
L 262 0 
L 2515 0 
L 2669 989 
z
" transform="scale(0.015625)"/>
       </defs>
       <use xlink:href="#CMR17-32" transform="scale(0.996264)"/>
       <use xlink:href="#CMR17-30" transform="translate(45.690477 0) scale(0.996264)"/>
      </g>
     </g>
    </g>
    <g id="ytick_4">
     <g id="line2d_23">
      <path d="M 63.783553 283.924028 
L 584.216447 283.924028 
" clip-path="url(#p34a9045f67)" style="fill: none; stroke: #b0b0b0; stroke-width: 0.8; stroke-linecap: square"/>
     </g>
     <g id="line2d_24">
      <g>
       <use xlink:href="#m24bc66ce8e" x="63.783553" y="283.924028" style="stroke: #000000; stroke-width: 0.8"/>
      </g>
     </g>
     <g id="text_13">
      <!-- 30 -->
      <g transform="translate(36.679743 291.534375) scale(0.22 -0.22)">
       <use xlink:href="#CMR17-33" transform="scale(0.996264)"/>
       <use xlink:href="#CMR17-30" transform="translate(45.690477 0) scale(0.996264)"/>
      </g>
     </g>
    </g>
    <g id="ytick_5">
     <g id="line2d_25">
      <path d="M 63.783553 230.821292 
L 584.216447 230.821292 
" clip-path="url(#p34a9045f67)" style="fill: none; stroke: #b0b0b0; stroke-width: 0.8; stroke-linecap: square"/>
     </g>
     <g id="line2d_26">
      <g>
       <use xlink:href="#m24bc66ce8e" x="63.783553" y="230.821292" style="stroke: #000000; stroke-width: 0.8"/>
      </g>
     </g>
     <g id="text_14">
      <!-- 40 -->
      <g transform="translate(36.679743 238.431639) scale(0.22 -0.22)">
       <use xlink:href="#CMR17-34" transform="scale(0.996264)"/>
       <use xlink:href="#CMR17-30" transform="translate(45.690477 0) scale(0.996264)"/>
      </g>
     </g>
    </g>
    <g id="ytick_6">
     <g id="line2d_27">
      <path d="M 63.783553 177.718556 
L 584.216447 177.718556 
" clip-path="url(#p34a9045f67)" style="fill: none; stroke: #b0b0b0; stroke-width: 0.8; stroke-linecap: square"/>
     </g>
     <g id="line2d_28">
      <g>
       <use xlink:href="#m24bc66ce8e" x="63.783553" y="177.718556" style="stroke: #000000; stroke-width: 0.8"/>
      </g>
     </g>
     <g id="text_15">
      <!-- 50 -->
      <g transform="translate(36.679743 185.328902) scale(0.22 -0.22)">
       <use xlink:href="#CMR17-35" transform="scale(0.996264)"/>
       <use xlink:href="#CMR17-30" transform="translate(45.690477 0) scale(0.996264)"/>
      </g>
     </g>
    </g>
    <g id="ytick_7">
     <g id="line2d_29">
      <path d="M 63.783553 124.615819 
L 584.216447 124.615819 
" clip-path="url(#p34a9045f67)" style="fill: none; stroke: #b0b0b0; stroke-width: 0.8; stroke-linecap: square"/>
     </g>
     <g id="line2d_30">
      <g>
       <use xlink:href="#m24bc66ce8e" x="63.783553" y="124.615819" style="stroke: #000000; stroke-width: 0.8"/>
      </g>
     </g>
     <g id="text_16">
      <!-- 60 -->
      <g transform="translate(36.679743 132.226166) scale(0.22 -0.22)">
       <use xlink:href="#CMR17-36" transform="scale(0.996264)"/>
       <use xlink:href="#CMR17-30" transform="translate(45.690477 0) scale(0.996264)"/>
      </g>
     </g>
    </g>
    <g id="ytick_8">
     <g id="line2d_31">
      <path d="M 63.783553 71.513083 
L 584.216447 71.513083 
" clip-path="url(#p34a9045f67)" style="fill: none; stroke: #b0b0b0; stroke-width: 0.8; stroke-linecap: square"/>
     </g>
     <g id="line2d_32">
      <g>
       <use xlink:href="#m24bc66ce8e" x="63.783553" y="71.513083" style="stroke: #000000; stroke-width: 0.8"/>
      </g>
     </g>
     <g id="text_17">
      <!-- 70 -->
      <g transform="translate(36.679743 79.12343) scale(0.22 -0.22)">
       <use xlink:href="#CMR17-37" transform="scale(0.996264)"/>
       <use xlink:href="#CMR17-30" transform="translate(45.690477 0) scale(0.996264)"/>
      </g>
     </g>
    </g>
    <g id="ytick_9">
     <g id="line2d_33">
      <path d="M 63.783553 18.410347 
L 584.216447 18.410347 
" clip-path="url(#p34a9045f67)" style="fill: none; stroke: #b0b0b0; stroke-width: 0.8; stroke-linecap: square"/>
     </g>
     <g id="line2d_34">
      <g>
       <use xlink:href="#m24bc66ce8e" x="63.783553" y="18.410347" style="stroke: #000000; stroke-width: 0.8"/>
      </g>
     </g>
     <g id="text_18">
      <!-- 80 -->
      <g transform="translate(36.679743 26.020693) scale(0.22 -0.22)">
       <defs>
        <path id="CMR17-38" d="M 1741 2264 
C 2144 2467 2554 2773 2554 3263 
C 2554 3841 1990 4179 1472 4179 
C 890 4179 378 3759 378 3180 
C 378 3021 416 2747 666 2505 
C 730 2442 998 2251 1171 2130 
C 883 1983 211 1634 211 934 
C 211 279 838 -128 1459 -128 
C 2144 -128 2720 362 2720 1010 
C 2720 1590 2330 1857 2074 2029 
L 1741 2264 
z
M 902 2822 
C 851 2854 595 3051 595 3351 
C 595 3739 998 4032 1459 4032 
C 1965 4032 2336 3676 2336 3262 
C 2336 2669 1670 2331 1638 2331 
C 1632 2331 1626 2331 1574 2370 
L 902 2822 
z
M 2080 1519 
C 2176 1449 2483 1240 2483 851 
C 2483 381 2010 25 1472 25 
C 890 25 448 438 448 940 
C 448 1443 838 1862 1280 2060 
L 2080 1519 
z
" transform="scale(0.015625)"/>
       </defs>
       <use xlink:href="#CMR17-38" transform="scale(0.996264)"/>
       <use xlink:href="#CMR17-30" transform="translate(45.690477 0) scale(0.996264)"/>
      </g>
     </g>
    </g>
    <g id="text_19">
     <!--  Training accuracy [\%] -->
     <g transform="translate(27.218624 326.633209) rotate(-90) scale(0.22 -0.22)">
      <defs>
       <path id="CMR17-63" d="M 2234 2240 
C 2112 2240 1933 2240 1933 2017 
C 1933 1838 2080 1787 2163 1787 
C 2208 1787 2394 1807 2394 2024 
C 2394 2467 1958 2803 1466 2803 
C 787 2803 211 2178 211 1363 
C 211 516 813 -64 1466 -64 
C 2259 -64 2458 677 2458 748 
C 2458 774 2451 793 2406 793 
C 2362 793 2355 787 2330 703 
C 2163 180 1798 51 1523 51 
C 1114 51 621 427 621 1369 
C 621 2338 1094 2688 1472 2688 
C 1722 2688 2093 2573 2234 2240 
z
" transform="scale(0.015625)"/>
       <path id="CMR17-79" d="M 2496 2197 
C 2656 2586 2944 2586 3034 2586 
L 3034 2752 
C 2912 2752 2752 2752 2630 2752 
C 2496 2752 2285 2752 2157 2758 
L 2157 2592 
C 2400 2573 2406 2394 2406 2343 
C 2406 2280 2394 2248 2362 2171 
L 1664 449 
L 902 2306 
C 870 2382 870 2426 870 2433 
C 870 2573 1018 2586 1171 2586 
L 1171 2758 
C 1018 2752 742 2752 582 2752 
C 410 2752 205 2752 64 2758 
L 64 2586 
C 410 2586 448 2554 531 2350 
L 1485 15 
C 1197 -738 1030 -1178 627 -1178 
C 557 -1178 397 -1159 282 -1044 
C 429 -1031 493 -942 493 -833 
C 493 -725 416 -629 288 -629 
C 147 -629 77 -725 77 -840 
C 77 -1095 339 -1280 627 -1280 
C 998 -1280 1229 -922 1357 -604 
L 2496 2197 
z
" transform="scale(0.015625)"/>
       <path id="CMR17-5b" d="M 1504 -1600 
L 1504 -1377 
L 902 -1377 
L 902 4544 
L 1504 4544 
L 1504 4767 
L 678 4767 
L 678 -1600 
L 1504 -1600 
z
" transform="scale(0.015625)"/>
       <path id="CMR17-25" d="M 4640 959 
C 4640 1698 4275 2240 3846 2240 
C 3411 2240 2970 1736 2970 959 
C 2970 183 3405 -320 3846 -320 
C 4275 -320 4640 215 4640 959 
z
M 3853 -218 
C 3686 -218 3270 -66 3270 959 
C 3270 1991 3686 2138 3853 2138 
C 4205 2138 4525 1634 4525 959 
C 4525 285 4205 -218 3853 -218 
z
M 4083 4577 
C 4128 4647 4134 4653 4134 4685 
C 4134 4761 4077 4800 4026 4800 
C 3962 4800 3936 4756 3891 4706 
C 3520 4190 3008 4134 2746 4134 
C 2106 4134 1715 4494 1594 4607 
C 1510 4682 1389 4800 1171 4800 
C 736 4800 294 4296 294 3519 
C 294 2743 730 2240 1171 2240 
C 1600 2240 1965 2778 1965 3527 
C 1965 3969 1830 4270 1811 4308 
C 2202 4064 2586 4032 2752 4032 
C 3162 4032 3456 4183 3616 4289 
L 3622 4283 
L 858 -84 
C 800 -174 800 -187 800 -206 
C 800 -276 858 -320 915 -320 
C 973 -320 992 -289 1037 -218 
L 4083 4577 
z
M 1178 2342 
C 1011 2342 595 2494 595 3519 
C 595 4551 1011 4698 1178 4698 
C 1530 4698 1850 4194 1850 3519 
C 1850 2845 1530 2342 1178 2342 
z
" transform="scale(0.015625)"/>
       <path id="CMR17-5d" d="M 915 4767 
L 90 4767 
L 90 4544 
L 691 4544 
L 691 -1377 
L 90 -1377 
L 90 -1600 
L 915 -1600 
L 915 4767 
z
" transform="scale(0.015625)"/>
      </defs>
      <use xlink:href="#CMR17-54" transform="scale(0.996264)"/>
      <use xlink:href="#CMR17-72" transform="translate(58.702625 0) scale(0.996264)"/>
      <use xlink:href="#CMR17-61" transform="translate(93.983393 0) scale(0.996264)"/>
      <use xlink:href="#CMR17-69" transform="translate(139.67387 0) scale(0.996264)"/>
      <use xlink:href="#CMR17-6e" transform="translate(164.544929 0) scale(0.996264)"/>
      <use xlink:href="#CMR17-69" transform="translate(215.440298 0) scale(0.996264)"/>
      <use xlink:href="#CMR17-6e" transform="translate(240.311357 0) scale(0.996264)"/>
      <use xlink:href="#CMR17-67" transform="translate(291.206727 0) scale(0.996264)"/>
      <use xlink:href="#CMR17-61" transform="translate(366.97317 0) scale(0.996264)"/>
      <use xlink:href="#CMR17-63" transform="translate(412.663647 0) scale(0.996264)"/>
      <use xlink:href="#CMR17-63" transform="translate(453.149308 0) scale(0.996264)"/>
      <use xlink:href="#CMR17-75" transform="translate(493.634968 0) scale(0.996264)"/>
      <use xlink:href="#CMR17-72" transform="translate(544.530338 0) scale(0.996264)"/>
      <use xlink:href="#CMR17-61" transform="translate(579.811106 0) scale(0.996264)"/>
      <use xlink:href="#CMR17-63" transform="translate(625.501583 0) scale(0.996264)"/>
      <use xlink:href="#CMR17-79" transform="translate(665.987243 0) scale(0.996264)"/>
      <use xlink:href="#CMR17-5b" transform="translate(744.356125 0) scale(0.996264)"/>
      <use xlink:href="#CMR17-25" transform="translate(769.227184 0) scale(0.996264)"/>
      <use xlink:href="#CMR17-5d" transform="translate(846.146774 0) scale(0.996264)"/>
     </g>
    </g>
   </g>
   <g id="patch_3">
    <path d="M 450.390846 187.808076 
L 470.216861 187.808076 
L 470.216861 164.020724 
L 450.390846 164.020724 
L 450.390846 187.808076 
z
" clip-path="url(#p34a9045f67)" style="fill: #75aff4; stroke: #0000ff; stroke-linejoin: miter"/>
   </g>
   <g id="line2d_35">
    <path d="M 460.303853 187.808076 
L 460.303853 200.021705 
" clip-path="url(#p34a9045f67)" style="fill: none; stroke: #0000ff; stroke-linecap: square"/>
   </g>
   <g id="line2d_36">
    <path d="M 460.303853 164.020724 
L 460.303853 133.784637 
" clip-path="url(#p34a9045f67)" style="fill: none; stroke: #0000ff; stroke-linecap: square"/>
   </g>
   <g id="line2d_37">
    <path d="M 455.347349 200.021705 
L 465.260357 200.021705 
" clip-path="url(#p34a9045f67)" style="fill: none; stroke: #0000ff; stroke-linecap: square"/>
   </g>
   <g id="line2d_38">
    <path d="M 455.347349 133.784637 
L 465.260357 133.784637 
" clip-path="url(#p34a9045f67)" style="fill: none; stroke: #0000ff; stroke-linecap: square"/>
   </g>
   <g id="line2d_39"/>
   <g id="patch_4">
    <path d="M 475.173365 185.418453 
L 494.99938 185.418453 
L 494.99938 163.383682 
L 475.173365 163.383682 
L 475.173365 185.418453 
z
" clip-path="url(#p34a9045f67)" style="fill: #e0ee89; stroke: #c4e302; stroke-linejoin: miter"/>
   </g>
   <g id="line2d_40">
    <path d="M 485.086372 185.418453 
L 485.086372 210.111225 
" clip-path="url(#p34a9045f67)" style="fill: none; stroke: #c4e302; stroke-linecap: square"/>
   </g>
   <g id="line2d_41">
    <path d="M 485.086372 163.383682 
L 485.086372 144.290574 
" clip-path="url(#p34a9045f67)" style="fill: none; stroke: #c4e302; stroke-linecap: square"/>
   </g>
   <g id="line2d_42">
    <path d="M 480.129868 210.111225 
L 490.042876 210.111225 
" clip-path="url(#p34a9045f67)" style="fill: none; stroke: #c4e302; stroke-linecap: square"/>
   </g>
   <g id="line2d_43">
    <path d="M 480.129868 144.290574 
L 490.042876 144.290574 
" clip-path="url(#p34a9045f67)" style="fill: none; stroke: #c4e302; stroke-linecap: square"/>
   </g>
   <g id="line2d_44"/>
   <g id="patch_5">
    <path d="M 499.955883 206.244085 
L 519.781898 206.244085 
L 519.781898 190.619846 
L 499.955883 190.619846 
L 499.955883 206.244085 
z
" clip-path="url(#p34a9045f67)" style="fill: #ea83e2; stroke: #f311e2; stroke-linejoin: miter"/>
   </g>
   <g id="line2d_45">
    <path d="M 509.868891 206.244085 
L 509.868891 228.697183 
" clip-path="url(#p34a9045f67)" style="fill: none; stroke: #f311e2; stroke-linecap: square"/>
   </g>
   <g id="line2d_46">
    <path d="M 509.868891 190.619846 
L 509.868891 169.122789 
" clip-path="url(#p34a9045f67)" style="fill: none; stroke: #f311e2; stroke-linecap: square"/>
   </g>
   <g id="line2d_47">
    <path d="M 504.912387 228.697183 
L 514.825395 228.697183 
" clip-path="url(#p34a9045f67)" style="fill: none; stroke: #f311e2; stroke-linecap: square"/>
   </g>
   <g id="line2d_48">
    <path d="M 504.912387 169.122789 
L 514.825395 169.122789 
" clip-path="url(#p34a9045f67)" style="fill: none; stroke: #f311e2; stroke-linecap: square"/>
   </g>
   <g id="line2d_49"/>
   <g id="patch_6">
    <path d="M 524.738402 193.782133 
L 544.564417 193.782133 
L 544.564417 167.761793 
L 524.738402 167.761793 
L 524.738402 193.782133 
z
" clip-path="url(#p34a9045f67)" style="fill: #99fc99; stroke: #008000; stroke-linejoin: miter"/>
   </g>
   <g id="line2d_50">
    <path d="M 534.65141 193.782133 
L 534.65141 220.200745 
" clip-path="url(#p34a9045f67)" style="fill: none; stroke: #008000; stroke-linecap: square"/>
   </g>
   <g id="line2d_51">
    <path d="M 534.65141 167.761793 
L 534.65141 131.874467 
" clip-path="url(#p34a9045f67)" style="fill: none; stroke: #008000; stroke-linecap: square"/>
   </g>
   <g id="line2d_52">
    <path d="M 529.694906 220.200745 
L 539.607913 220.200745 
" clip-path="url(#p34a9045f67)" style="fill: none; stroke: #008000; stroke-linecap: square"/>
   </g>
   <g id="line2d_53">
    <path d="M 529.694906 131.874467 
L 539.607913 131.874467 
" clip-path="url(#p34a9045f67)" style="fill: none; stroke: #008000; stroke-linecap: square"/>
   </g>
   <g id="line2d_54"/>
   <g id="patch_7">
    <path d="M 549.520921 398.405252 
L 569.346936 398.405252 
L 569.346936 385.30198 
L 549.520921 385.30198 
L 549.520921 398.405252 
z
" clip-path="url(#p34a9045f67)" style="fill: #fa8072; stroke: #ff0000; stroke-linejoin: miter"/>
   </g>
   <g id="line2d_55">
    <path d="M 559.433928 398.405252 
L 559.433928 410.129233 
" clip-path="url(#p34a9045f67)" style="fill: none; stroke: #ff0000; stroke-linecap: square"/>
   </g>
   <g id="line2d_56">
    <path d="M 559.433928 385.30198 
L 559.433928 371.509061 
" clip-path="url(#p34a9045f67)" style="fill: none; stroke: #ff0000; stroke-linecap: square"/>
   </g>
   <g id="line2d_57">
    <path d="M 554.477425 410.129233 
L 564.390432 410.129233 
" clip-path="url(#p34a9045f67)" style="fill: none; stroke: #ff0000; stroke-linecap: square"/>
   </g>
   <g id="line2d_58">
    <path d="M 554.477425 371.509061 
L 564.390432 371.509061 
" clip-path="url(#p34a9045f67)" style="fill: none; stroke: #ff0000; stroke-linecap: square"/>
   </g>
   <g id="line2d_59"/>
   <g id="line2d_60">
    <path d="M 435.521334 443.232238 
L 435.521334 18.410347 
" clip-path="url(#p34a9045f67)" style="fill: none; stroke: #000000; stroke-width: 0.55; stroke-linecap: square"/>
   </g>
   <g id="line2d_61">
    <path d="M 88.566072 389.297915 
L 138.131109 241.441839 
L 187.696147 154.471358 
L 237.261184 130.988148 
L 286.826222 137.950507 
L 336.391259 156.359455 
L 385.956297 160.961692 
L 435.521334 160.72568 
" clip-path="url(#p34a9045f67)" style="fill: none; stroke: #008000; stroke-width: 1.5; stroke-linecap: square"/>
   </g>
   <g id="line2d_62">
    <path d="M 88.566072 387.435084 
L 138.131109 382.620023 
L 187.696147 390.544772 
L 237.261184 388.191571 
L 286.826222 386.893851 
L 336.391259 391.911704 
L 385.956297 386.149824 
L 435.521334 392.690337 
" clip-path="url(#p34a9045f67)" style="fill: none; stroke: #ff0000; stroke-width: 1.5; stroke-linecap: square"/>
   </g>
   <g id="line2d_63">
    <path d="M 88.566072 393.812241 
L 138.131109 198.133608 
L 187.696147 140.074616 
L 237.261184 128.864038 
L 286.826222 137.124464 
L 336.391259 155.651419 
L 385.956297 156.595467 
L 435.521334 154.825376 
" clip-path="url(#p34a9045f67)" style="fill: none; stroke: #0000ff; stroke-width: 1.5; stroke-linecap: square"/>
   </g>
   <g id="line2d_64">
    <path d="M 450.390846 175.328933 
L 470.216861 175.328933 
" clip-path="url(#p34a9045f67)" style="fill: none; stroke: #000000"/>
   </g>
   <g id="line2d_65">
    <path d="M 475.173365 174.797905 
L 494.99938 174.797905 
" clip-path="url(#p34a9045f67)" style="fill: none; stroke: #000000"/>
   </g>
   <g id="line2d_66">
    <path d="M 499.955883 199.85361 
L 519.781898 199.85361 
" clip-path="url(#p34a9045f67)" style="fill: none; stroke: #000000"/>
   </g>
   <g id="line2d_67">
    <path d="M 524.738402 180.639206 
L 544.564417 180.639206 
" clip-path="url(#p34a9045f67)" style="fill: none; stroke: #000000"/>
   </g>
   <g id="line2d_68">
    <path d="M 549.520921 396.336314 
L 569.346936 396.336314 
" clip-path="url(#p34a9045f67)" style="fill: none; stroke: #000000"/>
   </g>
   <g id="patch_8">
    <path d="M 63.783553 443.232238 
L 63.783553 18.410347 
" style="fill: none; stroke: #000000; stroke-width: 0.8; stroke-linejoin: miter; stroke-linecap: square"/>
   </g>
   <g id="patch_9">
    <path d="M 584.216447 443.232238 
L 584.216447 18.410347 
" style="fill: none; stroke: #000000; stroke-width: 0.8; stroke-linejoin: miter; stroke-linecap: square"/>
   </g>
   <g id="patch_10">
    <path d="M 63.783553 443.232238 
L 584.216447 443.232238 
" style="fill: none; stroke: #000000; stroke-width: 0.8; stroke-linejoin: miter; stroke-linecap: square"/>
   </g>
   <g id="patch_11">
    <path d="M 63.783553 18.410347 
L 584.216447 18.410347 
" style="fill: none; stroke: #000000; stroke-width: 0.8; stroke-linejoin: miter; stroke-linecap: square"/>
   </g>
  </g>
  <g id="axes_2">
   <g id="matplotlib.axis_3">
    <g id="ytick_10">
     <g id="line2d_69">
      <path d="M 63.783553 443.232238 
L 584.216447 443.232238 
" clip-path="url(#p34a9045f67)" style="fill: none; stroke: #b0b0b0; stroke-width: 0.8; stroke-linecap: square"/>
     </g>
     <g id="line2d_70">
      <defs>
       <path id="mbab5e66ea4" d="M 0 0 
L 3.5 0 
" style="stroke: #000000; stroke-width: 0.8"/>
      </defs>
      <g>
       <use xlink:href="#mbab5e66ea4" x="584.216447" y="443.232238" style="stroke: #000000; stroke-width: 0.8"/>
      </g>
     </g>
     <g id="text_20">
      <!-- 0 -->
      <g transform="translate(591.216447 450.842584) scale(0.22 -0.22)">
       <use xlink:href="#CMR17-30" transform="scale(0.996264)"/>
      </g>
     </g>
    </g>
    <g id="ytick_11">
     <g id="line2d_71">
      <path d="M 63.783553 390.129501 
L 584.216447 390.129501 
" clip-path="url(#p34a9045f67)" style="fill: none; stroke: #b0b0b0; stroke-width: 0.8; stroke-linecap: square"/>
     </g>
     <g id="line2d_72">
      <g>
       <use xlink:href="#mbab5e66ea4" x="584.216447" y="390.129501" style="stroke: #000000; stroke-width: 0.8"/>
      </g>
     </g>
     <g id="text_21">
      <!-- 10 -->
      <g transform="translate(591.216447 397.739848) scale(0.22 -0.22)">
       <use xlink:href="#CMR17-31" transform="scale(0.996264)"/>
       <use xlink:href="#CMR17-30" transform="translate(45.690477 0) scale(0.996264)"/>
      </g>
     </g>
    </g>
    <g id="ytick_12">
     <g id="line2d_73">
      <path d="M 63.783553 337.026765 
L 584.216447 337.026765 
" clip-path="url(#p34a9045f67)" style="fill: none; stroke: #b0b0b0; stroke-width: 0.8; stroke-linecap: square"/>
     </g>
     <g id="line2d_74">
      <g>
       <use xlink:href="#mbab5e66ea4" x="584.216447" y="337.026765" style="stroke: #000000; stroke-width: 0.8"/>
      </g>
     </g>
     <g id="text_22">
      <!-- 20 -->
      <g transform="translate(591.216447 344.637112) scale(0.22 -0.22)">
       <use xlink:href="#CMR17-32" transform="scale(0.996264)"/>
       <use xlink:href="#CMR17-30" transform="translate(45.690477 0) scale(0.996264)"/>
      </g>
     </g>
    </g>
    <g id="ytick_13">
     <g id="line2d_75">
      <path d="M 63.783553 283.924028 
L 584.216447 283.924028 
" clip-path="url(#p34a9045f67)" style="fill: none; stroke: #b0b0b0; stroke-width: 0.8; stroke-linecap: square"/>
     </g>
     <g id="line2d_76">
      <g>
       <use xlink:href="#mbab5e66ea4" x="584.216447" y="283.924028" style="stroke: #000000; stroke-width: 0.8"/>
      </g>
     </g>
     <g id="text_23">
      <!-- 30 -->
      <g transform="translate(591.216447 291.534375) scale(0.22 -0.22)">
       <use xlink:href="#CMR17-33" transform="scale(0.996264)"/>
       <use xlink:href="#CMR17-30" transform="translate(45.690477 0) scale(0.996264)"/>
      </g>
     </g>
    </g>
    <g id="ytick_14">
     <g id="line2d_77">
      <path d="M 63.783553 230.821292 
L 584.216447 230.821292 
" clip-path="url(#p34a9045f67)" style="fill: none; stroke: #b0b0b0; stroke-width: 0.8; stroke-linecap: square"/>
     </g>
     <g id="line2d_78">
      <g>
       <use xlink:href="#mbab5e66ea4" x="584.216447" y="230.821292" style="stroke: #000000; stroke-width: 0.8"/>
      </g>
     </g>
     <g id="text_24">
      <!-- 40 -->
      <g transform="translate(591.216447 238.431639) scale(0.22 -0.22)">
       <use xlink:href="#CMR17-34" transform="scale(0.996264)"/>
       <use xlink:href="#CMR17-30" transform="translate(45.690477 0) scale(0.996264)"/>
      </g>
     </g>
    </g>
    <g id="ytick_15">
     <g id="line2d_79">
      <path d="M 63.783553 177.718556 
L 584.216447 177.718556 
" clip-path="url(#p34a9045f67)" style="fill: none; stroke: #b0b0b0; stroke-width: 0.8; stroke-linecap: square"/>
     </g>
     <g id="line2d_80">
      <g>
       <use xlink:href="#mbab5e66ea4" x="584.216447" y="177.718556" style="stroke: #000000; stroke-width: 0.8"/>
      </g>
     </g>
     <g id="text_25">
      <!-- 50 -->
      <g transform="translate(591.216447 185.328902) scale(0.22 -0.22)">
       <use xlink:href="#CMR17-35" transform="scale(0.996264)"/>
       <use xlink:href="#CMR17-30" transform="translate(45.690477 0) scale(0.996264)"/>
      </g>
     </g>
    </g>
    <g id="ytick_16">
     <g id="line2d_81">
      <path d="M 63.783553 124.615819 
L 584.216447 124.615819 
" clip-path="url(#p34a9045f67)" style="fill: none; stroke: #b0b0b0; stroke-width: 0.8; stroke-linecap: square"/>
     </g>
     <g id="line2d_82">
      <g>
       <use xlink:href="#mbab5e66ea4" x="584.216447" y="124.615819" style="stroke: #000000; stroke-width: 0.8"/>
      </g>
     </g>
     <g id="text_26">
      <!-- 60 -->
      <g transform="translate(591.216447 132.226166) scale(0.22 -0.22)">
       <use xlink:href="#CMR17-36" transform="scale(0.996264)"/>
       <use xlink:href="#CMR17-30" transform="translate(45.690477 0) scale(0.996264)"/>
      </g>
     </g>
    </g>
    <g id="ytick_17">
     <g id="line2d_83">
      <path d="M 63.783553 71.513083 
L 584.216447 71.513083 
" clip-path="url(#p34a9045f67)" style="fill: none; stroke: #b0b0b0; stroke-width: 0.8; stroke-linecap: square"/>
     </g>
     <g id="line2d_84">
      <g>
       <use xlink:href="#mbab5e66ea4" x="584.216447" y="71.513083" style="stroke: #000000; stroke-width: 0.8"/>
      </g>
     </g>
     <g id="text_27">
      <!-- 70 -->
      <g transform="translate(591.216447 79.12343) scale(0.22 -0.22)">
       <use xlink:href="#CMR17-37" transform="scale(0.996264)"/>
       <use xlink:href="#CMR17-30" transform="translate(45.690477 0) scale(0.996264)"/>
      </g>
     </g>
    </g>
    <g id="ytick_18">
     <g id="line2d_85">
      <path d="M 63.783553 18.410347 
L 584.216447 18.410347 
" clip-path="url(#p34a9045f67)" style="fill: none; stroke: #b0b0b0; stroke-width: 0.8; stroke-linecap: square"/>
     </g>
     <g id="line2d_86">
      <g>
       <use xlink:href="#mbab5e66ea4" x="584.216447" y="18.410347" style="stroke: #000000; stroke-width: 0.8"/>
      </g>
     </g>
     <g id="text_28">
      <!-- 80 -->
      <g transform="translate(591.216447 26.020693) scale(0.22 -0.22)">
       <use xlink:href="#CMR17-38" transform="scale(0.996264)"/>
       <use xlink:href="#CMR17-30" transform="translate(45.690477 0) scale(0.996264)"/>
      </g>
     </g>
    </g>
    <g id="text_29">
     <!-- Post training accuracy [\%] -->
     <g transform="translate(631.738881 346.808353) rotate(-90) scale(0.22 -0.22)">
      <defs>
       <path id="CMR17-50" d="M 1267 2042 
L 2291 2042 
C 3117 2042 3718 2578 3718 3184 
C 3718 3791 3130 4352 2291 4352 
L 333 4352 
L 333 4186 
C 774 4186 845 4186 845 3899 
L 845 446 
C 845 160 774 160 333 160 
L 333 0 
C 518 0 858 0 1056 0 
C 1254 0 1594 0 1779 0 
L 1779 160 
C 1338 160 1267 160 1267 446 
L 1267 2042 
z
M 1254 2176 
L 1254 3938 
C 1254 4155 1267 4186 1523 4186 
L 2170 4186 
C 2995 4186 3232 3714 3232 3184 
C 3232 2604 2950 2176 2170 2176 
L 1254 2176 
z
" transform="scale(0.015625)"/>
      </defs>
      <use xlink:href="#CMR17-50" transform="scale(0.996264)"/>
      <use xlink:href="#CMR17-6f" transform="translate(59.983847 0) scale(0.996264)"/>
      <use xlink:href="#CMR17-73" transform="translate(105.674324 0) scale(0.996264)"/>
      <use xlink:href="#CMR17-74" transform="translate(141.475661 0) scale(0.996264)"/>
      <use xlink:href="#CMR17-74" transform="translate(206.832395 0) scale(0.996264)"/>
      <use xlink:href="#CMR17-72" transform="translate(242.113163 0) scale(0.996264)"/>
      <use xlink:href="#CMR17-61" transform="translate(277.393931 0) scale(0.996264)"/>
      <use xlink:href="#CMR17-69" transform="translate(323.084408 0) scale(0.996264)"/>
      <use xlink:href="#CMR17-6e" transform="translate(347.955467 0) scale(0.996264)"/>
      <use xlink:href="#CMR17-69" transform="translate(398.850836 0) scale(0.996264)"/>
      <use xlink:href="#CMR17-6e" transform="translate(423.721895 0) scale(0.996264)"/>
      <use xlink:href="#CMR17-67" transform="translate(474.617265 0) scale(0.996264)"/>
      <use xlink:href="#CMR17-61" transform="translate(550.383708 0) scale(0.996264)"/>
      <use xlink:href="#CMR17-63" transform="translate(596.074185 0) scale(0.996264)"/>
      <use xlink:href="#CMR17-63" transform="translate(636.559846 0) scale(0.996264)"/>
      <use xlink:href="#CMR17-75" transform="translate(677.045506 0) scale(0.996264)"/>
      <use xlink:href="#CMR17-72" transform="translate(727.940876 0) scale(0.996264)"/>
      <use xlink:href="#CMR17-61" transform="translate(763.221644 0) scale(0.996264)"/>
      <use xlink:href="#CMR17-63" transform="translate(808.912121 0) scale(0.996264)"/>
      <use xlink:href="#CMR17-79" transform="translate(849.397781 0) scale(0.996264)"/>
      <use xlink:href="#CMR17-5b" transform="translate(927.766664 0) scale(0.996264)"/>
      <use xlink:href="#CMR17-25" transform="translate(952.637722 0) scale(0.996264)"/>
      <use xlink:href="#CMR17-5d" transform="translate(1029.557312 0) scale(0.996264)"/>
     </g>
    </g>
   </g>
   <g id="patch_12">
    <path d="M 63.783553 443.232238 
L 63.783553 18.410347 
" style="fill: none; stroke: #000000; stroke-width: 0.8; stroke-linejoin: miter; stroke-linecap: square"/>
   </g>
   <g id="patch_13">
    <path d="M 584.216447 443.232238 
L 584.216447 18.410347 
" style="fill: none; stroke: #000000; stroke-width: 0.8; stroke-linejoin: miter; stroke-linecap: square"/>
   </g>
   <g id="patch_14">
    <path d="M 63.783553 443.232238 
L 584.216447 443.232238 
" style="fill: none; stroke: #000000; stroke-width: 0.8; stroke-linejoin: miter; stroke-linecap: square"/>
   </g>
   <g id="patch_15">
    <path d="M 63.783553 18.410347 
L 584.216447 18.410347 
" style="fill: none; stroke: #000000; stroke-width: 0.8; stroke-linejoin: miter; stroke-linecap: square"/>
   </g>
   <g id="legend_1">
    <g id="patch_16">
     <path d="M 245.447141 345.992565 
L 402.552859 345.992565 
Q 406.552859 345.992565 406.552859 341.992565 
L 406.552859 204.614397 
Q 406.552859 200.614397 402.552859 200.614397 
L 245.447141 200.614397 
Q 241.447141 200.614397 241.447141 204.614397 
L 241.447141 341.992565 
Q 241.447141 345.992565 245.447141 345.992565 
z
" style="fill: #ffffff; opacity: 0.8; stroke: #cccccc; stroke-linejoin: miter"/>
    </g>
    <g id="patch_17">
     <path d="M 249.447141 222.614397 
L 289.447141 222.614397 
L 289.447141 208.614397 
L 249.447141 208.614397 
z
" style="fill: #99fc99; stroke: #008000; stroke-width: 2; stroke-linejoin: miter"/>
    </g>
    <g id="text_30">
     <!-- scenario 1 -->
     <g transform="translate(305.447141 222.614397) scale(0.2 -0.2)">
      <use xlink:href="#CMR17-73" transform="scale(0.996264)"/>
      <use xlink:href="#CMR17-63" transform="translate(35.801338 0) scale(0.996264)"/>
      <use xlink:href="#CMR17-65" transform="translate(76.286998 0) scale(0.996264)"/>
      <use xlink:href="#CMR17-6e" transform="translate(116.772659 0) scale(0.996264)"/>
      <use xlink:href="#CMR17-61" transform="translate(167.668028 0) scale(0.996264)"/>
      <use xlink:href="#CMR17-72" transform="translate(213.358505 0) scale(0.996264)"/>
      <use xlink:href="#CMR17-69" transform="translate(248.639273 0) scale(0.996264)"/>
      <use xlink:href="#CMR17-6f" transform="translate(273.510332 0) scale(0.996264)"/>
      <use xlink:href="#CMR17-31" transform="translate(349.276775 0) scale(0.996264)"/>
     </g>
    </g>
    <g id="patch_18">
     <path d="M 249.447141 250.490031 
L 289.447141 250.490031 
L 289.447141 236.490031 
L 249.447141 236.490031 
z
" style="fill: #fa8072; stroke: #ff0000; stroke-width: 2.6; stroke-linejoin: miter"/>
    </g>
    <g id="text_31">
     <!-- scenario 2 -->
     <g transform="translate(305.447141 250.490031) scale(0.2 -0.2)">
      <use xlink:href="#CMR17-73" transform="scale(0.996264)"/>
      <use xlink:href="#CMR17-63" transform="translate(35.801338 0) scale(0.996264)"/>
      <use xlink:href="#CMR17-65" transform="translate(76.286998 0) scale(0.996264)"/>
      <use xlink:href="#CMR17-6e" transform="translate(116.772659 0) scale(0.996264)"/>
      <use xlink:href="#CMR17-61" transform="translate(167.668028 0) scale(0.996264)"/>
      <use xlink:href="#CMR17-72" transform="translate(213.358505 0) scale(0.996264)"/>
      <use xlink:href="#CMR17-69" transform="translate(248.639273 0) scale(0.996264)"/>
      <use xlink:href="#CMR17-6f" transform="translate(273.510332 0) scale(0.996264)"/>
      <use xlink:href="#CMR17-32" transform="translate(349.276775 0) scale(0.996264)"/>
     </g>
    </g>
    <g id="patch_19">
     <path d="M 249.447141 278.365664 
L 289.447141 278.365664 
L 289.447141 264.365664 
L 249.447141 264.365664 
z
" style="fill: #75aff4; stroke: #0000ff; stroke-width: 2; stroke-linejoin: miter"/>
    </g>
    <g id="text_32">
     <!-- scenario 3 -->
     <g transform="translate(305.447141 278.365664) scale(0.2 -0.2)">
      <use xlink:href="#CMR17-73" transform="scale(0.996264)"/>
      <use xlink:href="#CMR17-63" transform="translate(35.801338 0) scale(0.996264)"/>
      <use xlink:href="#CMR17-65" transform="translate(76.286998 0) scale(0.996264)"/>
      <use xlink:href="#CMR17-6e" transform="translate(116.772659 0) scale(0.996264)"/>
      <use xlink:href="#CMR17-61" transform="translate(167.668028 0) scale(0.996264)"/>
      <use xlink:href="#CMR17-72" transform="translate(213.358505 0) scale(0.996264)"/>
      <use xlink:href="#CMR17-69" transform="translate(248.639273 0) scale(0.996264)"/>
      <use xlink:href="#CMR17-6f" transform="translate(273.510332 0) scale(0.996264)"/>
      <use xlink:href="#CMR17-33" transform="translate(349.276775 0) scale(0.996264)"/>
     </g>
    </g>
    <g id="patch_20">
     <path d="M 249.447141 306.241298 
L 289.447141 306.241298 
L 289.447141 292.241298 
L 249.447141 292.241298 
z
" style="fill: #e0ee89; stroke: #c4e302; stroke-width: 2; stroke-linejoin: miter"/>
    </g>
    <g id="text_33">
     <!-- scenario 3.1 -->
     <g transform="translate(305.447141 306.241298) scale(0.2 -0.2)">
      <use xlink:href="#CMR17-73" transform="scale(0.996264)"/>
      <use xlink:href="#CMR17-63" transform="translate(35.801338 0) scale(0.996264)"/>
      <use xlink:href="#CMR17-65" transform="translate(76.286998 0) scale(0.996264)"/>
      <use xlink:href="#CMR17-6e" transform="translate(116.772659 0) scale(0.996264)"/>
      <use xlink:href="#CMR17-61" transform="translate(167.668028 0) scale(0.996264)"/>
      <use xlink:href="#CMR17-72" transform="translate(213.358505 0) scale(0.996264)"/>
      <use xlink:href="#CMR17-69" transform="translate(248.639273 0) scale(0.996264)"/>
      <use xlink:href="#CMR17-6f" transform="translate(273.510332 0) scale(0.996264)"/>
      <use xlink:href="#CMR17-33" transform="translate(349.276775 0) scale(0.996264)"/>
      <use xlink:href="#CMR17-2e" transform="translate(394.967252 0) scale(0.996264)"/>
      <use xlink:href="#CMR17-31" transform="translate(419.838311 0) scale(0.996264)"/>
     </g>
    </g>
    <g id="patch_21">
     <path d="M 249.447141 334.116932 
L 289.447141 334.116932 
L 289.447141 320.116932 
L 249.447141 320.116932 
z
" style="fill: #ea83e2; stroke: #f311e2; stroke-width: 2; stroke-linejoin: miter"/>
    </g>
    <g id="text_34">
     <!-- scenario 3.2 -->
     <g transform="translate(305.447141 334.116932) scale(0.2 -0.2)">
      <use xlink:href="#CMR17-73" transform="scale(0.996264)"/>
      <use xlink:href="#CMR17-63" transform="translate(35.801338 0) scale(0.996264)"/>
      <use xlink:href="#CMR17-65" transform="translate(76.286998 0) scale(0.996264)"/>
      <use xlink:href="#CMR17-6e" transform="translate(116.772659 0) scale(0.996264)"/>
      <use xlink:href="#CMR17-61" transform="translate(167.668028 0) scale(0.996264)"/>
      <use xlink:href="#CMR17-72" transform="translate(213.358505 0) scale(0.996264)"/>
      <use xlink:href="#CMR17-69" transform="translate(248.639273 0) scale(0.996264)"/>
      <use xlink:href="#CMR17-6f" transform="translate(273.510332 0) scale(0.996264)"/>
      <use xlink:href="#CMR17-33" transform="translate(349.276775 0) scale(0.996264)"/>
      <use xlink:href="#CMR17-2e" transform="translate(394.967252 0) scale(0.996264)"/>
      <use xlink:href="#CMR17-32" transform="translate(419.838311 0) scale(0.996264)"/>
     </g>
    </g>
   </g>
  </g>
 </g>
 <defs>
  <clipPath id="p34a9045f67">
   <rect x="63.783553" y="18.410347" width="520.432894" height="424.821891"/>
  </clipPath>
 </defs>
</svg>
